<svg width="511" height="840" fill="none" xmlns="http://www.w3.org/2000/svg"><path fill-rule="evenodd" clip-rule="evenodd" d="M350.911 265.066c-6.023 16.634-21.006 30.841-41.231 40.066-11.835 10.18-26.592 26.979-25.911 47.047 1.253 36.186 24.665 150.786 41.198 227.911 10.657-.007 27.198-1.028 40.068-6.394 20.674-8.607 45.645-29.275 41.341-48.226-4.303-18.951-15.723-24.222-30.139-24.977-16.37-.865-23.248 8.607-19.809 17.221 1.593 3.991 6.886 5.393 12.108 6.777 6.05 1.603 12.005 3.181 12.005 8.729 0 10.337-12.08 16.363-28.424 9.472-15.165-6.388-39.373-44.855 5.169-61.151 35.314-12.917 75.008 17.249 75.008 43.085 0 25.836-17.426 51.876-49.098 68.9a285.858 285.858 0 0 1-42.546 18.631c1.489 2.867 3.044 5.846 4.641 8.906l2.85 5.462c6.46 12.382 14.435 22.49 21.085 30.92 7.536 9.554 13.371 16.95 13.371 23.053 0 11.488-14.927 39.06-22.969 41.341-5.318 1.509-3.102-13.04-1.322-24.729.912-5.986 1.71-11.222 1.322-13.166-.442-2.159-8.498-14.9-18.386-29.881l-67.108-.953c-.491 28.273-2.152 60.238-6.96 69.86 0 0-43.643 9.186-45.938 2.294-1.012-3.039 4.231-4.738 10.506-6.772 7.951-2.577 17.561-5.691 18.204-12.751.592-6.53 1.185-34.245 1.621-59.495-.661-42.172-4.617-275.136-11.379-298.806-4.856-16.97-14.825-28.819-23.153-36.227-27.558-7.909-48.785-24.138-56.996-44.108-15.376 6.36-37.254 17.474-47.164 32.293-9.413 14.07-13.336 29.887-16.79 43.808-5.262 21.216-9.432 38.029-30.278 37.54-41.219-.96-58.835-84.814-63.411-137.493-4.576-52.679 2.056-76.22 20.578-82.505 16.61-5.63 25.82 6.2 38.875 22.968 8.327 10.696 18.218 23.401 32.592 34.866 16.426 13.106 51.495 8.721 68.568 5.568 14.323-25.3 50.15-43.233 92.071-43.233 40.849 0 75.912 17.012 90.93 41.295 17.631 2.152 51.601 4.15 66.903-9.507 13.717-12.243 22.893-25.475 30.618-36.614 12.113-17.467 20.657-29.788 37.547-25.081 18.835 5.243 26.755 28.382 25.1 81.238-1.655 52.857-14.613 137.555-55.716 140.789-20.786 1.645-25.88-14.915-32.307-35.812-4.217-13.709-9.008-29.285-19.181-42.812-10.53-13.996-32.407-23.79-48.063-29.347Z" fill="#E3CDFB"/><path d="m229.796 184.363.763-.762c-5.999 2.608-7.225 14.926 1.151 11.018 5.502-2.581 5.815-13.061-1.914-10.256ZM228.645 200.441l.763-.382c-3.671-2.043-5.536 5.993-1.92 6.898 3.861.974 4.821-6.162 1.157-6.516ZM224.675 213.052c-2.247 1.696-.633 7.641 2.724 5.673 4.426-2.581-1.021-10.004-2.724-5.673ZM245.492 182.797l.762-.919c-6.006 3.146-7.225 17.984 1.151 13.272 5.502-3.105 5.816-15.73-1.913-12.353ZM244.341 202.157l.763-.463c-3.671-2.506-5.537 7.218-1.921 8.314 3.861 1.178 4.835-7.381 1.158-7.851ZM240.364 217.383c-2.247 2.043-.626 9.2 2.724 6.809 4.433-3.105-1.014-12.053-2.724-6.809ZM260.038 182.62l.762-.933c-5.999 3.173-7.218 18.141 1.151 13.388 5.502-3.133 5.815-15.874-1.913-12.455ZM258.914 202.157l.763-.463c-3.671-2.527-5.53 7.286-1.921 8.382 3.834 1.178 4.794-7.456 1.158-7.919ZM254.917 217.505c-2.247 2.043-.633 9.289 2.724 6.892 4.426-3.174-1.022-12.176-2.724-6.892ZM277.259 183.601l.77-.763c-6.006 2.608-7.225 14.927 1.144 11.011 5.509-2.588 5.822-13.054-1.914-10.248ZM276.114 199.678l.763-.381c-3.67-2.077-5.536 5.992-1.92 6.898 3.861.967 4.814-6.143 1.157-6.517ZM272.138 212.303c-2.247 1.702-.627 7.64 2.724 5.672 4.433-2.594-1.015-10.017-2.724-5.672Z" fill="#FF9C89"/><path d="m309.68 305.132-.26-.569a.612.612 0 0 0-.148.095l.408.474Zm41.231-40.066.209-.589a.625.625 0 0 0-.796.377l.587.212Zm-67.142 87.113-.624.021v.001l.624-.022Zm41.198 227.911-.611.131a.625.625 0 0 0 .612.494l-.001-.625Zm40.068-6.394-.24-.577.24.577Zm41.341-48.226-.609.139.609-.139Zm-30.139-24.977-.033.624.033-.624Zm-19.809 17.221.58-.232-.58.232Zm12.108 6.777-.16.604.16-.604Zm-16.419 18.201.243-.576-.243.576Zm5.169-61.151-.215-.586.215.586Zm25.91 111.985-.295-.551h-.001l.296.551Zm-42.546 18.631-.203-.591a.623.623 0 0 0-.352.879l.555-.288Zm4.635 8.894.555-.288-.001-.001-.554.289Zm.011.021-.555.288.001.001.554-.289Zm2.845 5.453-.555.289.555-.289Zm21.084 30.92.52-.347-.029-.04-.491.387Zm.001 0-.52.347.029.04.491-.387Zm-9.598 64.394-.17-.601.17.601Zm-1.322-24.728.618.094-.618-.094Zm1.322-13.167.613-.122v-.004l-.613.126Zm-18.386-29.881.522-.344a.625.625 0 0 0-.513-.281l-.009.625Zm-67.108-.953.009-.625a.624.624 0 0 0-.634.614l.625.011Zm-6.96 69.86.129.611a.623.623 0 0 0 .43-.332l-.559-.279Zm-45.938 2.294-.593.198.593-.198Zm10.506-6.772.193.595-.193-.595Zm18.204-12.751.622.057-.622-.057Zm1.621-59.495.624.01a.067.067 0 0 0 0-.02l-.624.01ZM240.188 347.44l.601-.172-.601.172Zm-23.153-36.227.415-.467a.618.618 0 0 0-.243-.134l-.172.601Zm-56.996-44.108.578-.238a.627.627 0 0 0-.817-.34l.239.578Zm-47.164 32.293.519.348-.519-.348Zm-16.79 43.808-.606-.151.607.151Zm-30.278 37.54.014-.625-.014.625ZM2.396 243.253l-.623.054.623-.054Zm20.578-82.505-.2-.592.2.592Zm38.875 22.968-.493.384.493-.384Zm32.592 34.866.39-.489-.39.489Zm68.568 5.568.114.615a.625.625 0 0 0 .43-.307l-.544-.308Zm183.001-1.938-.531.329c.1.161.267.268.456.291l.075-.62Zm66.903-9.507.417.466-.417-.466Zm30.618-36.614-.514-.356.514.356Zm37.547-25.081-.168.602.168-.602Zm25.1 81.238-.625-.019.625.019Zm-55.716 140.789-.049-.623h-.001l.05.623Zm-32.307-35.812-.597.184.597-.184Zm-19.181-42.812.5-.375-.5.375ZM309.939 305.7c20.327-9.271 35.463-23.583 41.56-40.421l-1.175-.425c-5.95 16.43-20.781 30.531-40.904 39.709l.519 1.137Zm-25.545 46.458c-.671-19.76 13.877-36.389 25.693-46.553l-.815-.947c-11.854 10.196-26.819 27.166-26.127 47.542l1.249-.042Zm41.185 227.801c-8.267-38.561-18.252-86.486-26.327-129.292-8.079-42.828-14.234-80.474-14.858-98.509l-1.249.043c.628 18.15 6.805 55.897 14.879 98.697 8.077 42.821 18.065 90.758 26.332 129.323l1.223-.262Zm39.216-6.84c-12.75 5.316-29.186 6.339-39.828 6.346l.001 1.25c10.672-.007 27.318-1.026 40.308-6.442l-.481-1.154Zm40.972-47.51c2.08 9.159-2.9 18.853-11.145 27.42-8.222 8.542-19.559 15.815-29.827 20.09l.48 1.154c10.406-4.332 21.892-11.697 30.248-20.378 8.332-8.657 13.687-18.771 11.463-28.563l-1.219.277Zm-29.563-24.492c7.15.375 13.47 1.866 18.527 5.547 5.044 3.671 8.909 9.578 11.036 18.945l1.219-.277c-2.177-9.584-6.173-15.788-11.519-19.679-5.334-3.882-11.931-5.404-19.197-5.785l-.066 1.249Zm-19.196 16.365c-1.629-4.08-.817-8.335 2.338-11.491 3.172-3.173 8.787-5.301 16.858-4.874l.066-1.249c-8.299-.438-14.308 1.738-17.808 5.239-3.516 3.517-4.425 8.305-2.615 12.839l1.161-.464Zm11.688 6.405c-2.625-.696-5.195-1.379-7.309-2.372-2.11-.992-3.667-2.249-4.379-4.033l-1.161.464c.881 2.207 2.768 3.647 5.008 4.7 2.236 1.051 4.924 1.761 7.521 2.449l.32-1.208Zm12.47 9.333c0-3.066-1.676-5.025-4.048-6.386-2.331-1.338-5.422-2.152-8.422-2.947l-.32 1.208c3.049.808 5.961 1.584 8.12 2.823 2.118 1.215 3.42 2.82 3.42 5.302h1.25Zm-29.291 10.048c8.272 3.488 15.55 3.743 20.806 1.732 5.28-2.02 8.485-6.328 8.485-11.78h-1.25c0 4.884-2.836 8.758-7.682 10.613-4.87 1.863-11.803 1.686-19.874-1.717l-.485 1.152Zm5.196-62.313c-11.224 4.106-18.195 9.638-22.046 15.786-3.855 6.154-4.541 12.856-3.327 19.208 1.212 6.343 4.319 12.349 8.072 17.169 3.748 4.812 8.184 8.498 12.105 10.15l.485-1.152c-3.662-1.542-7.938-5.06-11.603-9.766-3.659-4.698-6.664-10.526-7.832-16.635-1.165-6.1-.5-12.47 3.159-18.311 3.663-5.847 10.37-11.234 21.417-15.276l-.43-1.173Zm75.848 43.671c0-13.216-10.117-27.385-24.55-36.602-14.458-9.233-33.414-13.611-51.298-7.069l.43 1.173c17.43-6.376 35.979-2.129 50.195 6.95 14.243 9.096 23.973 22.928 23.973 35.548h1.25Zm-49.427 69.45c31.809-17.098 49.427-43.318 49.427-69.45h-1.25c0 25.539-17.234 51.399-48.768 68.349l.591 1.101Zm-42.639 18.672a286.614 286.614 0 0 0 42.64-18.672l-.593-1.101a285.268 285.268 0 0 1-42.453 18.591l.406 1.182Zm4.986 8.014c-1.595-3.057-3.147-6.03-4.634-8.893l-1.11.576c1.488 2.864 3.041 5.839 4.636 8.895l1.108-.578Zm.011.022-.01-.021-1.11.576.011.021 1.109-.576Zm2.845 5.452a8843 8843 0 0 0-2.845-5.453l-1.108.578 2.844 5.453 1.109-.578Zm21.021 30.822c-6.652-8.433-14.591-18.499-21.021-30.822l-1.109.578c6.492 12.44 14.501 22.591 21.149 31.018l.981-.774Zm.03.04h-.001l-1.04.693.001.001 1.04-.694Zm13.476 23.4c0-3.236-1.541-6.737-3.956-10.566-2.422-3.84-5.788-8.106-9.55-12.874l-.981.774c3.775 4.785 7.094 8.995 9.474 12.767 2.387 3.784 3.763 7.032 3.763 9.899h1.25Zm-23.423 41.942c1.127-.319 2.32-1.063 3.528-2.084 1.216-1.026 2.486-2.366 3.766-3.927 2.562-3.123 5.202-7.177 7.583-11.507 2.382-4.331 4.514-8.956 6.051-13.227 1.533-4.257 2.495-8.216 2.495-11.197h-1.25c0 2.763-.903 6.558-2.421 10.773-1.512 4.201-3.615 8.766-5.97 13.049-2.356 4.284-4.955 8.269-7.454 11.316-1.25 1.524-2.466 2.803-3.606 3.765-1.147.969-2.18 1.586-3.063 1.837l.341 1.202Zm-2.111-25.424c-.888 5.83-1.895 12.435-2.008 17.393-.056 2.464.105 4.613.664 6.07.282.735.692 1.365 1.298 1.741.626.389 1.363.446 2.157.22l-.341-1.202c-.536.152-.893.084-1.157-.08-.284-.177-.56-.527-.79-1.127-.465-1.211-.637-3.147-.581-5.593.111-4.861 1.102-11.375 1.994-17.233l-1.236-.189Zm1.327-12.95c.082.411.108 1.042.074 1.888a42.2 42.2 0 0 1-.255 2.986c-.264 2.286-.689 5.079-1.146 8.076l1.236.189c.456-2.99.885-5.808 1.151-8.122.134-1.158.227-2.199.263-3.078.035-.87.015-1.622-.097-2.183l-1.226.244Zm-18.294-29.659c4.942 7.489 9.424 14.414 12.725 19.734 1.651 2.661 3.003 4.915 3.968 6.636.483.86.866 1.581 1.14 2.149.283.586.424.958.462 1.143l1.225-.251c-.073-.354-.28-.853-.561-1.435a42.172 42.172 0 0 0-1.176-2.218c-.978-1.744-2.341-4.016-3.996-6.683-3.31-5.335-7.799-12.271-12.744-19.763l-1.043.688Zm-66.596-.672 67.108.953.018-1.25-67.108-.953-.018 1.25Zm-6.392 69.514c1.245-2.492 2.262-6.369 3.103-11.17.844-4.817 1.52-10.619 2.06-16.992 1.079-12.749 1.617-27.824 1.863-41.966l-1.25-.022c-.245 14.131-.783 29.175-1.859 41.882-.538 6.355-1.21 12.116-2.045 16.882-.838 4.782-1.831 8.508-2.99 10.827l1.118.559Zm-47.09 2.213c.392 1.174 1.603 1.864 3.053 2.283 1.489.43 3.444.638 5.671.693 4.463.109 10.171-.398 15.778-1.117 5.614-.719 11.153-1.654 15.286-2.409a329.506 329.506 0 0 0 6.378-1.229l.367-.075.094-.02.024-.005.007-.001.001-.001-.128-.611-.129-.612h-.001l-.006.002-.023.004-.093.02-.364.075a337.719 337.719 0 0 1-6.351 1.223c-4.121.753-9.637 1.684-15.221 2.399-5.59.717-11.223 1.214-15.588 1.107-2.188-.053-4.018-.258-5.355-.644-1.377-.398-2.031-.929-2.214-1.477l-1.186.395Zm10.906-7.564c-3.115 1.009-6.059 1.961-8.089 3.053-1.014.545-1.868 1.16-2.398 1.893-.555.767-.74 1.651-.419 2.618l1.186-.395c-.184-.553-.093-1.021.246-1.491.365-.505 1.023-1.011 1.977-1.525 1.908-1.025 4.723-1.94 7.883-2.964l-.386-1.189Zm17.775-12.213c-.294 3.221-2.633 5.621-6.049 7.57-3.41 1.945-7.735 3.349-11.726 4.643l.386 1.189c3.96-1.284 8.416-2.725 11.959-4.746 3.537-2.018 6.325-4.705 6.674-8.543l-1.244-.113Zm1.618-59.45c-.437 25.268-1.029 52.949-1.619 59.45l1.245.113c.595-6.56 1.188-34.309 1.623-59.542l-1.249-.021Zm-11.355-298.624c.825 2.891 1.624 9.057 2.381 17.788.756 8.708 1.467 19.906 2.133 32.817 1.332 25.821 2.481 58.472 3.439 91.707 1.917 66.467 3.071 135.247 3.402 156.332l1.249-.019c-.33-21.087-1.484-89.874-3.401-156.35-.959-33.237-2.108-65.9-3.44-91.735-.667-12.917-1.379-24.131-2.136-32.86-.756-8.704-1.561-14.996-2.425-18.023l-1.202.343Zm-22.967-35.932c8.268 7.357 18.153 19.11 22.967 35.933l1.202-.344c-4.898-17.116-14.951-29.061-23.339-36.522l-.83.933Zm-57.159-44.336c8.308 20.204 29.73 36.529 57.402 44.47l.344-1.201c-27.443-7.876-48.475-24.009-56.59-43.745l-1.156.476Zm-46.067 32.403c4.885-7.304 12.748-13.731 21.346-19.137 8.59-5.401 17.869-9.754 25.538-12.927l-.478-1.155c-7.707 3.188-17.055 7.572-25.725 13.024-8.663 5.446-16.694 11.985-21.72 19.5l1.039.695Zm-16.702 43.61c3.457-13.934 7.359-29.645 16.702-43.61l-1.039-.695c-9.482 14.173-13.426 30.096-16.876 44.004l1.213.301Zm-30.9 38.015c5.298.124 9.58-.851 13.097-2.751 3.519-1.9 6.232-4.703 8.43-8.17 4.371-6.898 6.75-16.52 9.373-27.094l-1.213-.301c-2.64 10.643-4.977 20.036-9.217 26.726-2.109 3.327-4.676 5.962-7.967 7.739-3.29 1.778-7.348 2.721-12.474 2.601l-.029 1.25ZM1.773 243.307c2.29 26.368 7.846 60.561 18 88.302 5.077 13.868 11.317 26.163 18.905 35.062 7.592 8.905 16.575 14.454 27.114 14.7l.03-1.25c-10.07-.235-18.747-5.527-26.193-14.261-7.452-8.74-13.63-20.881-18.682-34.681-10.102-27.596-15.643-61.669-17.929-87.98l-1.245.108Zm21-83.151c-9.518 3.23-15.919 10.898-19.355 24.291-3.429 13.362-3.934 32.503-1.645 58.86l1.245-.108c-2.286-26.323-1.764-45.291 1.61-58.441 3.367-13.119 9.544-20.363 18.547-23.419l-.402-1.183Zm39.569 23.176c-6.508-8.358-12.132-15.592-18.23-20.006-3.065-2.217-6.269-3.74-9.787-4.339-3.52-.599-7.316-.267-11.551 1.169l.4 1.183c4.07-1.379 7.655-1.679 10.94-1.119 3.289.559 6.317 1.986 9.264 4.119 5.923 4.286 11.43 11.352 17.978 19.761l.986-.768Zm32.489 34.761c-14.31-11.413-24.16-24.063-32.489-34.761l-.986.768c8.325 10.694 18.257 23.454 32.696 34.97l.779-.977Zm68.065 5.443c-8.518 1.573-21.509 3.45-34.406 3.302-12.929-.147-25.619-2.329-33.659-8.745l-.78.977c8.386 6.691 21.444 8.87 34.425 9.018 13.012.149 26.092-1.743 34.647-3.323l-.227-1.229Zm92.184-43.244c-42.062 0-78.144 17.991-92.614 43.55l1.087.616c14.176-25.04 49.747-42.916 91.527-42.916v-1.25Zm91.462 41.591c-15.168-24.523-50.472-41.591-91.462-41.591v1.25c40.709 0 75.529 16.957 90.399 40.999l1.063-.658Zm-.607.949c8.834 1.079 21.78 2.121 34.447 1.178 12.637-.941 25.135-3.866 32.948-10.839l-.833-.933c-7.489 6.685-19.627 9.589-32.208 10.525-12.552.935-25.406-.098-34.203-1.171l-.151 1.24Zm67.395-9.661c13.778-12.298 22.991-25.586 30.714-36.724l-1.027-.712c-7.726 11.141-16.864 24.316-30.52 36.503l.833.933Zm30.714-36.724c6.075-8.76 11.186-16.12 16.863-20.726 2.825-2.293 5.77-3.885 9.021-4.625 3.249-.74 6.844-.638 10.982.516l.336-1.204c-4.307-1.201-8.114-1.323-11.596-.531-3.479.792-6.594 2.49-9.531 4.873-5.846 4.744-11.064 12.278-17.102 20.985l1.027.712Zm36.866-24.835c9.155 2.548 15.721 9.438 19.806 22.351 4.094 12.943 5.664 31.855 4.837 58.266l1.25.039c.828-26.445-.735-45.531-4.895-58.682-4.171-13.183-10.982-20.484-20.663-23.178l-.335 1.204Zm24.643 80.617c-.826 26.4-4.476 60.727-13.038 88.84-4.282 14.058-9.78 26.522-16.737 35.66-6.953 9.132-15.323 14.895-25.365 15.685l.098 1.246c10.509-.827 19.172-6.864 26.261-16.174 7.084-9.304 12.636-21.925 16.939-36.053 8.607-28.259 12.263-62.709 13.092-89.165l-1.25-.039Zm-55.141 140.185c-5.11.404-9.213-.313-12.597-1.905-3.384-1.593-6.093-4.082-8.382-7.288-4.604-6.446-7.456-15.697-10.681-26.179l-1.194.367c3.203 10.414 6.111 19.891 10.857 26.538 2.386 3.341 5.25 5.99 8.868 7.693 3.617 1.702 7.945 2.438 13.228 2.02l-.099-1.246Zm-31.66-35.372c-4.213-13.697-9.03-29.378-19.278-43.004l-.999.751c10.097 13.426 14.862 28.898 19.083 42.62l1.194-.367Zm-19.278-43.004c-5.341-7.099-13.528-13.097-22.304-18.009-8.784-4.915-18.202-8.766-26.05-11.552l-.418 1.178c7.809 2.772 17.156 6.596 25.857 11.465 8.71 4.874 16.726 10.771 21.916 17.669l.999-.751Z" fill="#261097"/><path d="M173.521 417.49c1.485 10.092 16.398 20.77 24.12 26.258 10.582 7.491 25.944 11.876 38.93 12.503 6.456.306 23.534-5.727 23.112 4.31-.47 11.154-15.437 11.011-23.35 9.82-15.492-2.329-32.639-6.769-45.454-16.296-7.838-5.829-21.934-16.391-23.671-25.679l6.313-10.916Z" fill="#FF9C89" stroke="#261097" stroke-width="1.25" stroke-linejoin="round"/><path d="M27.107 176.661c-9.69 1.567-24.303 22.894-8.607 93.483 15.696 70.588 31.896 99.774 45.516 95.736 13.619-4.038 29.54-34.613 11.705-101.661-17.834-67.047-29.206-90.663-48.614-87.558ZM477.823 167.155c9.758 1.028 25.529 21.512 13.762 92.856s-26.34 101.388-40.156 98.086c-13.817-3.303-31.406-32.925-17.303-100.857 14.102-67.933 24.153-92.148 43.697-90.085Z" fill="#CFB1FB"/><path d="M235.537 283.13s-89.574 148.143-99.877 151.589c-10.303 3.446-21.79 3.446-17.228 16.077 4.562 12.632 42.492 25.264 48.233 18.386 5.74-6.877-5.741-17.221 0-31.004 5.74-13.782 79.243-156.185 79.243-156.185s.286-2.765-5.23-2.288a6.133 6.133 0 0 0-5.141 3.425Z" fill="#82A9F8" stroke="#261097" stroke-width="1.25" stroke-linejoin="round"/><path d="M122.544 444.027c-2.567 3.174 2.152 11.025 15.09 16.772 12.939 5.748 21.321 8.628 23.957 4.549 2.635-4.079.483-14.851-12.939-19.162-13.421-4.31-22.036-7.184-26.108-2.159ZM172.132 395.162c1.362-2.152 2.635-3.834 5.747-2.874s2.874 3.112.722 6.708c-2.152 3.595-5.032 6.224-7.667 5.27-2.636-.953-.477-6.469 1.198-9.104ZM163.511 412.172c-1.314 3.058-2.397 5.271 0 5.986 2.397.715 4.549-.96 6.462-3.834 1.914-2.874 4.086-6.231 1.199-7.423-2.887-1.191-6.231 1.914-7.661 5.271ZM189.619 361.863c-2.043 2.54-4.086 5.27-2.152 6.707 1.934 1.437 5.747-1.675 6.708-3.834.96-2.158 2.151-5.509 0-5.509-2.152 0-3.596 1.437-4.556 2.636ZM180.515 379.588c-1.75 2.349-2.608 5.979-.477 6.708 2.132.728 4.522-2.125 6.231-4.311 1.709-2.186 2.043-5.74-.483-6.469-2.527-.729-3.773 2.063-5.271 4.072Z" fill="#4370DB"/><path d="M280.895 385.335c1.498 17.542 10.215 29.963-8.171 40.49-14.573 8.342-32.823 1.675-42.669-25.59-5.639-15.608-5.863-31.91-8.267-48.199-1.158-7.858-2.942-17.112-9.282-22.744-4.984-4.433-17.643-6.483-15.873.749.865 3.31 18.59.198 8.784 11.427-3.507 4.011-15.049-9.609-15.662 3.479.055 4.216 22.063 8.397 9.009 12.85-2.315.79-13.741-3.364-11.821 3.739 2.397 8.852 17.936.422 24.773 7.436 4.767 4.889 5.448 17.514 6.81 24.147 3.153 15.526 10.051 33.857 20.64 43.009 12.55 10.841 29.962 9.343 46.033-2.24 16.636-11.985 8.784-47.838 5.952-52.863-2.534-4.542-10.978-4.072-10.256 4.31ZM139.064 424.961c-1.654-9.493 1.601-17.065 7.668-24.767 6.231-7.906 26.271-11.713 29.227-3.357 3.534 9.983-24.304 1.042-22.022 9.744 1.191 4.536 10.125-.98 12.863 2.125 4.433 5.046-3.153 7.824-7.068 7.668-1.921-.075-14.437.824-9.786 4.589 3.105 2.527 14.614-.749 9.357 8.172-2.009 3.405-8.608 2.247-12.094 1.961-7.409-.613-8.145-6.135-8.145-6.135Z" fill="#FF9C89" stroke="#261097" stroke-width="1.25" stroke-linejoin="round"/><path d="M244.722 292.888a2.293 2.293 0 0 1-2.259-1.911 2.297 2.297 0 0 1 1.503-2.549 5.88 5.88 0 0 0 3.637-6.251 4.575 4.575 0 0 0-1.696-3.221c-1.362-1.09-3.561-1.444-6.292-1.022-4.406.681-4.644 5.284-4.651 5.809a2.306 2.306 0 0 1-2.302 2.247 2.286 2.286 0 0 1-2.261-2.309c.035-3.112 1.86-9.261 8.553-10.289 5.08-.783 8.172.627 9.827 1.948a9.213 9.213 0 0 1 3.405 6.442 10.51 10.51 0 0 1-6.694 10.977c-.248.086-.508.13-.77.129Z" fill="#FF9C89"/><path d="M179.241 241.503c0 2.88 8.043 4.589 22.111 4.303 14.069-.286 29.411-.578 29.568-3.731.292-5.741-6.892-6.034-27.273-5.448-20.381.586-24.406-.293-24.406 4.876Z" fill="#fff"/><path d="M194.338 236.845s-.994 2.874-.994 4.202a14.94 14.94 0 0 0 .722 4.766s6.441.286 10.173.286 10.29-.619 10.29-.619c.359-1.487.562-3.007.605-4.536.055-3.098-1.048-4.535-1.048-4.535s-6.81-.109-11.447.109c-3.207.15-8.301.327-8.301.327Z" fill="#261097"/><path d="M196.109 238.438a6.227 6.227 0 0 0-.865 2.39c-.191 2.779.865 3.732.865 3.732l2.294.286a4.995 4.995 0 0 1-.953-3.248 6.195 6.195 0 0 1 1.239-3.541l-2.58.381ZM273.623 241.693c0 2.88 8.042 4.59 22.111 4.304 14.068-.286 29.41-.579 29.567-3.732.293-5.741-6.885-6.027-27.239-5.448-20.354.579-24.439-.293-24.439 4.876Z" fill="#fff"/><path d="M288.699 237.035s-.994 2.874-.994 4.202a15.006 15.006 0 0 0 .722 4.767s6.442.286 10.173.286c3.732 0 10.29-.62 10.29-.62.36-1.486.564-3.006.606-4.535.054-3.099-1.049-4.535-1.049-4.535s-6.81-.109-11.447.108c-3.207.178-8.301.327-8.301.327Z" fill="#261097"/><path d="M290.47 238.629a6.22 6.22 0 0 0-.865 2.39c-.191 2.778.865 3.732.865 3.732l2.294.293a5.04 5.04 0 0 1-.953-3.255 6.19 6.19 0 0 1 1.239-3.541l-2.58.381Z" fill="#fff"/><path d="M269.986 453.67c-16.649 2.295-12.06 41.341-10.895 76.37 1.164 35.029 3.459 104.364 28.137 103.356 28.138-1.151 16.65-48.232 13.783-87.279-2.867-39.046-11.454-95.144-31.025-92.447Z" fill="#FF9C89"/><path d="M52.936 261.884c7.49 29.465 27.504 52.434 30.146 55.376-.088-14.13-2.363-31.515-7.94-52.434-5.236-19.694-9.921-35.642-14.409-48.267l-1.477-2.308s-14.355 16.05-6.32 47.633ZM454.492 268.843c-3.704 30.18-20.626 55.499-22.873 58.754-1.709-14.028-4.733-23.364-.565-53.224 2.812-20.184 11.126-52.005 11.126-52.005s16.255 14.13 12.312 46.475Z" fill="#B692EB"/></svg>