<svg width="510" height="840" fill="none" xmlns="http://www.w3.org/2000/svg"><path d="M316.748 807.779a6.512 6.512 0 0 0 6.28-4.808l145.773-537.08a6.514 6.514 0 0 0-12.571-3.414L310.44 799.561a6.51 6.51 0 0 0 6.308 8.218Z" fill="#FFA982"/><path d="M464.486 747.201a6.51 6.51 0 0 0 4.902-10.8L318.306 563.608a6.5 6.5 0 0 0-2.012-1.604 6.509 6.509 0 0 0-8.827 2.935 6.525 6.525 0 0 0 1.035 7.244L459.58 744.977a6.526 6.526 0 0 0 2.212 1.644 6.517 6.517 0 0 0 2.694.58ZM115.371 790.366a6.511 6.511 0 0 0 6.281-4.808l140.019-519.667a6.518 6.518 0 0 0-4.557-8.073 6.502 6.502 0 0 0-4.981.655 6.483 6.483 0 0 0-1.918 1.698 6.498 6.498 0 0 0-1.115 2.306L109.081 782.144a6.514 6.514 0 0 0 4.579 7.992 6.55 6.55 0 0 0 1.711.23Z" fill="#FFA982"/><path d="M259.719 747.201a6.513 6.513 0 0 0 6.439-7.498 6.514 6.514 0 0 0-1.57-3.338L111.146 563.571a6.512 6.512 0 0 0-4.488-2.176 6.516 6.516 0 0 0-5.253 10.834l153.442 172.794a6.506 6.506 0 0 0 4.872 2.178Z" fill="#FFA982"/><path d="m389.631 524.922-76.227 47.084H91.731a2.216 2.216 0 0 1-.956-4.222l89.737-42.862h209.119ZM461.412 268.258H255.387l-24.8 87.293h206.611l24.214-87.293Z" fill="#FFA982"/><path d="M290.956 248.371a138.452 138.452 0 0 0 17.789-5.558c9.198-3.62 6.787-24.879-11.429-30.917s-52.343 3.06-62.053 9.011c-9.711 5.951-7.916 22.226-7.766 26.425.15 4.199 63.459 1.039 63.459 1.039ZM202.451 273.45c-.523 1.575-59.843 85.967-58.028 112.732 1.262 18.555 47.531 7.093 59.866-10.23 12.335-17.324-1.838-102.502-1.838-102.502Z" fill="#84CECA"/><path d="M260.662 786.254c-5.598.126-14.35-.75-16.624 1.525-2.275 2.274-1.222 3.45-3.5 4.262-.866.31-2.495.12-4.176-.233.476-2.804.802-4.822.852-5.554.263-3.724 1.049-20.787 2.361-21.573 1.312-.786 27.307-.213 27.564 2.624l2.098 22.049s.096.236.266.666a8.581 8.581 0 0 1-2.541.909c-1.748.173-.699-4.799-6.3-4.675Z" fill="#946255"/><path d="M240.538 792.041c2.277-.812 1.225-1.998 3.5-4.262 2.274-2.265 11.026-1.399 16.624-1.526 5.598-.126 4.552 4.849 6.3 4.663a8.581 8.581 0 0 0 2.541-.909c1.422 3.626 8.992 22.162 8.922 34.373-.034 6.63-3.664 13.78-21.786 13.78-18.123 0-24.9-2.501-25.725-6.823-2.232-11.679 3.49-28.057 5.448-39.542 1.681.366 3.31.556 4.176.246Z" fill="#FFD3B5"/><path d="M131.999 766.003c-.21-2.291-2.948-6.154-8.326-7.423-5.378-1.269-8.422 3.603-8.422 3.603l6.328-28.672 28.239 2.361s-4.049 31.61-3.956 32.043c-3.71 1.282-10.873 3.509-13.85 2.684-4.096-1.139.196-2.292-.013-4.596Z" fill="#946255"/><path d="M74.357 772.683c10.53-2.634 40.894-10.5 40.894-10.5s3.047-4.872 8.422-3.603c5.375 1.269 8.116 5.132 8.326 7.423.209 2.291-4.083 3.457.023 4.596 2.977.825 10.14-1.402 13.85-2.684.866 4.129 4.392 10.676 2.511 16.757-2.078 6.72-67.642 23.55-82.254 14.619-14.613-8.931-2.301-23.974 8.228-26.608Z" fill="#FFD3B5"/><path d="M80.398 793.969c4.995 0 10.72-.439 17.174-1.135 17.483-1.875 51.081-13.154 51.42-13.267a.53.53 0 0 0 .359-.463.528.528 0 0 0-.29-.508.526.526 0 0 0-.402-.028c-.333.113-33.827 11.352-51.197 13.217-17.776 1.908-29.971 1.911-35.79-3.966a.53.53 0 0 0-.587-.144.516.516 0 0 0-.297.294.526.526 0 0 0 .139.589c3.933 3.98 10.483 5.411 19.471 5.411Z" fill="#FA634B"/><path d="M199.391 450.743s-18.722 8.482-39.163 23.221c-18.649 13.447-62.446 34.413-70.718 50.951-13.261 26.518 18.558 226.306 18.558 226.306s6.428 1.968 26.605 5.448c7.526 1.298 23.897-1.752 25.429-4.662 13.047-24.84 10.636-144.152 6.157-189.944 0 0 41.96-18.449 79.347-34.674 37.387-16.224 26.834-90.723-46.215-76.646Z" fill="#9E4F60"/><path d="M207.296 572.006c2.138-14.952 34.84-89.394 34.84-89.394l-50.581-15.964s1.542-11.203 3.293-27.457c14.653 2.97 41.71 7.792 67.452 8.808 32.222 1.272 76.903-1.249 89.384-2.022 8.812 25.273 12.039 53.412 3.087 75.811-6.35 15.895-23.774 27.593-36.748 38.147-12.974 10.553-21.496 19.96-21.496 19.96s-14.066 183.77-18.699 186.711c-26.324 16.73-52.885-5.065-52.885-5.065s-22.196-157.689-17.647-189.535Z" fill="#9E4F60"/><path d="M152.373 569.382c2.354 0 3.939-.046 4.192-.053a.52.52 0 0 0 .476-.34.532.532 0 0 0-.306-.679.522.522 0 0 0-.203-.033c-.063 0-6.66.199-13.797-.224-9.324-.556-15.318-1.894-17.317-3.879a2.016 2.016 0 0 1-.699-1.512 1.577 1.577 0 0 1 .666-1.226c1.452-1.158 5.868-2.217 18.649-.666 7.732.926 14.909 2.395 14.986 2.411l.276-.999c-7.26-2.484-26.338-9.833-27.454-13.923a.915.915 0 0 1 .207-.912c2.807-3.274 22.312 7.576 33.934 15.182a.527.527 0 0 0 .576-.879c-.077-.05-7.729-5.046-15.792-9.381-16.65-8.952-18.805-6.434-19.514-5.605a1.963 1.963 0 0 0-.423 1.868c.646 2.378 5.465 5.472 14.729 9.461a194.396 194.396 0 0 0 7.563 3.054 195.709 195.709 0 0 0-8.955-1.306c-10.556-1.268-17.097-.962-19.441.906a2.59 2.59 0 0 0-1.056 2.022 3.057 3.057 0 0 0 .999 2.281c4 3.936 19.978 4.432 27.704 4.432Z" fill="#fff"/><path d="M269.689 232.107s44.924 1.998 62.454 35.965c17.53 33.967 31.579 211.816 31.579 211.816s-44.007 21.843-134.037 8.302c-40.758-6.131-52.833-25.232-52.833-25.232s3.943-160.626 29.122-200.664c16.461-26.171 40.551-33.334 63.715-30.187Z" fill="#84CECA"/><path d="M276.33 206.345s-.25 18.845 1.036 27.683c1.285 8.838-14.653 12.851-22.555 8.469-7.903-4.383-6.937-10.63-5.721-17.184 1.215-6.554 2.79-18.982 2.79-18.982l24.45.014ZM220.947 158.967s-2.198-11.656-10.5-8.682-6.661 18.849.742 25.812c7.403 6.963 12.765 3.7 12.681-1.332-.083-5.032-2.923-15.798-2.923-15.798ZM302.178 158.967s2.198-11.656 10.5-8.682 6.661 18.849-.739 25.812c-7.399 6.963-12.768 3.7-12.684-1.332.083-5.032 2.923-15.798 2.923-15.798Z" fill="#946255"/><path d="m250.601 215.769 25.736-.999c.033 2.844.1 6.101.233 9.274-2.454 1.266-6.727 2.681-13.77 2.941-4.633.209-9.266-.4-13.687-1.798.483-2.615 1.019-6.131 1.488-9.418Z" fill="#2E2E47"/><path d="M305.335 163.889c1.206 13.557 7.969 35.273-14.379 49.895-22.349 14.623-52.986 12.125-66.223-8.179-13.237-20.303-5.745-39.482-4.749-49.735.996-10.254-8.282-38.177 20.567-51.99 28.849-13.813 59.087 2.807 63.905 17.283 4.819 14.476-.066 32.069.879 42.726Z" fill="#946255"/><path d="M257.475 178.954s.569-1.332 4.682-2.87c4.183-1.562 6.897 1.705 6.923 1.738a.791.791 0 0 0 1.111.112.791.791 0 0 0 .112-1.111c-.034-.043-3.467-4.179-8.699-2.221-4.902 1.835-5.561 3.586-5.641 3.919l1.529.377a.278.278 0 0 1-.017.056ZM239.432 165.014a.776.776 0 0 0 .666-.366 10.986 10.986 0 0 1 4.705-3.703c4.33-1.765 7.24 1.555 7.363 1.695a.793.793 0 0 0 1.083.059.79.79 0 0 0 .12-1.078c-.04-.043-3.75-4.329-9.158-2.135a12.325 12.325 0 0 0-5.442 4.33.793.793 0 0 0-.103.593.788.788 0 0 0 .346.492.778.778 0 0 0 .42.113ZM286.983 163.982a.785.785 0 0 0 .673-1.195c-.03-.05-3.064-4.936-8.712-3.737a11.785 11.785 0 0 0-6.011 3.294.79.79 0 0 0 .644 1.277.786.786 0 0 0 .535-.232 10.398 10.398 0 0 1 5.158-2.8c4.536-.963 6.94 2.854 7.04 3.017a.79.79 0 0 0 .673.376ZM290.956 154.411a.782.782 0 0 0 .785-.661.784.784 0 0 0-.539-.874c-.389-.13-9.6-3.114-13.547-.999a.788.788 0 0 0 .162 1.424.787.787 0 0 0 .584-.035c2.781-1.492 9.831.296 12.322 1.109a.798.798 0 0 0 .233.036ZM236.651 154.455a.78.78 0 0 0 .427-.127c4.166-2.694 11.622-1.352 11.695-1.332a.787.787 0 0 0 .794-1.216.782.782 0 0 0-.504-.329c-.333-.063-8.146-1.475-12.841 1.562a.782.782 0 0 0-.331.886.783.783 0 0 0 .76.562v-.006Z" fill="#2E2E47"/><path d="M261.901 237.085s16.91-16.85 20.203-11.772c3.294 5.079-.04 21.353-1.851 22.269-1.812.915-28.566 3.413-34.154 0-5.588-3.414-4.089-21.26-4.089-21.26l19.891 10.763Z" fill="#84CECA"/><path d="M239.266 182.101c-5.332 0-9.654-2.376-9.654-5.308s4.322-5.308 9.654-5.308c5.331 0 9.654 2.376 9.654 5.308s-4.323 5.308-9.654 5.308ZM285.311 182.101c-5.331 0-9.654-2.376-9.654-5.308s4.323-5.308 9.654-5.308c5.332 0 9.654 2.376 9.654 5.308s-4.322 5.308-9.654 5.308Z" fill="#774237"/><path d="M292.744 369.201c4.07 6.774 42.772 30.921 64.745 44.291a2982.616 2982.616 0 0 1 4.519 46.289c-19.678-2.331-59.277-26.155-72.411-48.926-14.699-25.459-26.394-67.192-26.394-67.192s23.83 16.037 29.541 25.538ZM237.727 123.811s-8.115 5.032-11.675 11.915c-3.56 6.883-2.751 22.911-5.828 23.9-3.077.989-12.551-45.026-3.25-58.483 9.301-13.457 20.157-10.953 23.917-5.618 3.759 5.334-3.164 28.286-3.164 28.286ZM288.102 123.811s8.112 5.032 11.675 11.915c3.563 6.883 2.751 22.911 5.828 23.9 3.077.989 20.314-34.187 1.628-64.84-8.515-13.967-33.784-8.879-37.544-3.547-3.759 5.331 18.413 32.572 18.413 32.572ZM280.209 160.892s1.822 4.189-2.441 5.108c-4.262.919-2.873-4.585-1.515-5.288 1.219-.629 3.647-.893 3.956.18ZM246.652 160.892s1.821 4.189-2.438 5.108c-4.259.919-2.997-4.585-.942-5.728 1.208-.662 3.073-.453 3.38.62ZM249.016 261.388a39.342 39.342 0 0 0 4.802-.333c5.092-.639 10.51-2.121 13.484-3.686 2.701-1.422 5.728-2.331 8.931-3.307 3.331-.999 7.084-2.145 11.086-4.036 7.586-3.58 19.875-4.959 19.981-4.972a.784.784 0 0 0 .698-.867.786.786 0 0 0-.868-.698c-.512.057-12.674 1.419-20.5 5.115-3.9 1.842-7.443 2.914-10.869 3.95-3.277.999-6.374 1.931-9.208 3.423-2.781 1.462-8.102 2.907-12.948 3.513-5.528.696-9.657.223-11.036-1.255-1.069-1.146-2.724-2.664-4.642-4.393-3.93-3.573-9.867-8.971-9.861-11.046a.788.788 0 0 0-.786-.789.785.785 0 0 0-.759.806c0 2.574 4.296 6.687 10.377 12.215 1.811 1.665 3.527 3.203 4.552 4.302 1.495 1.605 4.586 2.058 7.566 2.058Z" fill="#2E2E47"/><path d="m214.616 474.373 38.739-263.862c.279-1.88.718-3.733 1.312-5.538 5.692-17.317 8.992-16.095 10.973-15.152 3.47 1.665 1.845 21.362 1.845 21.362l-33.454 263.31a182.491 182.491 0 0 0 2.151 59.134l2.071 10.26-22.471-2.884-22.476-2.881 6.025-12.867a182.609 182.609 0 0 0 15.285-50.882Z" fill="#2E2E47"/><path d="M215.38 544.195c-12.412-1.593-22.291-4.305-22.066-6.058.225-1.753 10.469-1.883 22.881-.291s22.292 4.304 22.067 6.057c-.225 1.753-10.469 1.884-22.882.292Z" fill="#2E2E47"/><path d="M238.256 545.189a1.311 1.311 0 0 0 1.299-1.146c.19-1.465-.972-2.797-7.249-4.519-4.223-1.159-9.891-2.228-15.952-2.997-6.061-.769-11.815-1.172-16.194-1.122-6.507.083-7.966 1.079-8.152 2.544a1.31 1.31 0 0 0 1.844 1.364c.285-.13.514-.357.647-.641 1.315-.666 8.591-1.203 21.522.456 12.931 1.658 19.841 3.996 20.94 4.995a1.33 1.33 0 0 0 1.126 1.066h.169ZM234.364 469.835a1.31 1.31 0 0 0 .692-2.425c-.256-.16-6.393-3.829-19.085-2.414a1.31 1.31 0 0 0-.657 2.316c.265.218.605.322.947.291 11.699-1.305 17.37 1.999 17.427 2.045.204.123.438.187.676.187ZM235.746 354.705c-.127 1.459 1.898 2.821 4.522 3.047 2.624.227 4.852-.776 4.979-2.231.126-1.455-1.902-2.824-4.526-3.047-2.624-.223-4.852.759-4.975 2.231ZM234.553 363.031c-.126 1.458 1.902 2.82 4.526 3.047 2.624.226 4.852-.773 4.975-2.231.123-1.459-1.898-2.824-4.522-3.047-2.624-.224-4.852.785-4.979 2.231ZM237.908 374.496c-2.624-.225-4.65-1.589-4.525-3.045.124-1.457 2.353-2.456 4.977-2.231 2.624.225 4.65 1.588 4.525 3.045-.125 1.457-2.353 2.456-4.977 2.231ZM231.7 379.708c-.124 1.458 1.901 2.82 4.525 3.047 2.624.226 4.852-.773 4.975-2.231.124-1.459-1.898-2.824-4.522-3.047-2.624-.223-4.852.772-4.978 2.231ZM226.368 458.892a1.311 1.311 0 0 0 1.299-1.149l6.66-52.283a1.315 1.315 0 0 0-1.136-1.469 1.312 1.312 0 0 0-1.468 1.136l-6.66 52.283a1.333 1.333 0 0 0 1.135 1.468l.17.014Z" fill="#fff"/><path d="m230.554 384.773 5.738-36.212h19.334l3.174-22.395-5.252-5.288-.472 3.713.879 2.271-2.778 19.601h-16.68l-6.018 37.984 2.075.326Z" fill="#fff"/><path d="M238.123 401.227c-.209 1.615 2.971 3.36 7.103 3.9 4.133.539 7.66-.333 7.863-1.958.203-1.625-2.971-3.364-7.103-3.9-4.133-.536-7.653.34-7.863 1.958Z" fill="#EAE6E4"/><path d="M230.631 397.704c-.21 1.615 2.97 3.363 7.103 3.9 4.132.536 7.659-.333 7.862-1.959.203-1.625-2.97-3.363-7.103-3.899-4.133-.536-7.643.34-7.862 1.958Z" fill="#fff"/><path d="M237.756 408.281c-4.133-.536-7.313-2.282-7.103-3.9.209-1.618 3.73-2.495 7.863-1.959 4.133.536 7.313 2.282 7.103 3.9-.209 1.618-3.73 2.495-7.863 1.959Z" fill="#EAE6E4"/><path d="M263.202 247.065a1.279 1.279 0 0 0 .919-.376 1.31 1.31 0 0 0 .024-1.845c-.21-.213-5.245-5.231-16.175-2.587-.167.04-.325.113-.464.215a1.297 1.297 0 0 0-.524.857c-.027.17-.02.344.021.511a1.311 1.311 0 0 0 1.583.968c9.378-2.268 13.514 1.705 13.684 1.875.249.244.583.382.932.382ZM259.206 277.639a1.309 1.309 0 0 0 1.251-.915 1.312 1.312 0 0 0-.495-1.469c-.333-.233-8.245-5.661-16.6-1.695a1.304 1.304 0 0 0-.673.746 1.307 1.307 0 0 0 .052 1.004 1.315 1.315 0 0 0 1.253.747c.172-.009.341-.052.497-.126 6.953-3.31 13.896 1.425 13.966 1.472.219.155.481.237.749.236ZM229.022 438.015a1.309 1.309 0 0 0 1.315-1.244 1.311 1.311 0 0 0-1.178-1.373l-8.735-.936a1.318 1.318 0 0 0-.992.263 1.314 1.314 0 0 0-.45 1.417 1.303 1.303 0 0 0 .658.787c.157.08.328.128.504.14l8.735.94c.048.005.095.007.143.006ZM240.508 424.914a1.311 1.311 0 0 0 .143-2.617l-9.674-1.076a1.313 1.313 0 1 0-.29 2.611l9.674 1.072c.049.007.098.01.147.01Z" fill="#fff"/><path d="M329.332 263.233s100.66 138.863 59.033 175.958c-31.303 27.906-95.125-34.177-121.696-80.316-11.146-19.355-9.637-39.013-6.224-43.046 14.906-17.629 72.444 38 72.444 38s-19.571-63.132-18.522-80.396c1.049-17.263 14.965-10.2 14.965-10.2Z" fill="#84CECA"/><path d="M284.559 318.883s-17.174-16.651-23.727-18.462c-6.554-1.812-18.316-4.073-19.648-1.978-1.332 2.094 13.364 6.047 13.364 6.047s-18.949-2.188-20.031-.576c-1.082 1.612.703 2.441.703 2.441s-3.214.36-3.477 1.895c-.263 1.535 12.711 6.587 12.711 6.587s-11.785-1.755-11.612.573c.173 2.328 21.146 10.13 21.146 10.13s13.887 13.024 21.233 9.567c7.346-3.456 13.42-12.398 9.338-16.224Z" fill="#946255"/><path d="M161.767 363.364s52.043-5.505 58.047 5.681c6.004 11.186-7.126 60.715-59.359 55.73-13.82-1.336-32.546-50.422 1.312-61.411Z" fill="#84CECA"/><path d="M195.857 369.025s9.941-5.358 15.652-9.99c5.711-4.633 7.659-9.082 13.377-8.093 5.718.989 21.196.54 19.458 3.131-1.738 2.59-16.124 3.067-16.124 3.067s19.411 2.917 18.628 6.517c-.782 3.6-2.88 3.406-2.88 3.406s3.067 3.041 1.958 4.36c-1.109 1.318-16.864 1.538-16.864 1.538s12.628 4.806 11.396 7.6c-1.232 2.793-14.936-.214-14.936-.214s-11.719 7.327-19.191 7.24c-7.473-.087-14.343-3.33-15.732-6.747-1.389-3.416 2.588-11.579 5.258-11.815Z" fill="#946255"/><path d="M273.782 616.99c.149-.001.298-.018.443-.05 3.906-.849 10.297-13.744 12.395-17.983 4.149-8.372 7.626-16.691 7.659-16.774a.528.528 0 0 0-.292-.662.523.523 0 0 0-.677.256c-3.816 9.158-14.722 33.135-19.315 34.134a.772.772 0 0 1-.752-.193c-1.749-1.619-.273-6.927 4.152-14.946 3.477-6.301 7.593-12.132 7.636-12.188a.528.528 0 0 0-.368-.827.521.521 0 0 0-.348.081c-6.66 4.262-18.092 10.42-20.437 8.785-.376-.263-.476-.826-.289-1.665.716-3.271 6.161-7.457 15.751-12.105 7.327-3.557 14.55-6.125 14.62-6.148a.528.528 0 1 0-.35-.999c-1.189.423-29.169 10.433-31.047 19.022-.283 1.299-.043 2.224.716 2.754.606.423 2.454 1.705 12.368-3.437 2.738-1.422 5.352-2.95 7.097-3.996-4.116 6.084-14.523 22.458-10.217 26.445.338.322.788.5 1.255.496ZM283.853 179.184a15.985 15.985 0 1 0-15.985-15.985 16 16 0 0 0 4.688 11.297 16 16 0 0 0 11.297 4.688Zm0-30.401a14.415 14.415 0 0 1 10.196 24.603 14.415 14.415 0 0 1-24.606-10.19 14.429 14.429 0 0 1 14.41-14.413ZM240.298 179.184a15.985 15.985 0 1 0-15.985-15.985 16.005 16.005 0 0 0 15.985 15.985Zm0-30.401a14.418 14.418 0 0 1 13.315 8.898 14.411 14.411 0 0 1-25.299 13.522 14.408 14.408 0 0 1-2.429-8.007 14.428 14.428 0 0 1 14.413-14.413Z" fill="#fff"/><path d="M255.493 162.723a.777.777 0 0 0 .363-.09c4.906-2.547 12.515.02 12.592.047a.765.765 0 0 0 .304.041.77.77 0 0 0 .541-.264.786.786 0 0 0-.333-1.266c-.333-.119-8.325-2.814-13.83.044a.786.786 0 0 0-.401.886.79.79 0 0 0 .764.602ZM228.459 154.455a.792.792 0 0 0 .536-.206.789.789 0 0 0-.406-1.356l-10.923-1.815a.789.789 0 0 0-.904.648.785.785 0 0 0 .648.904l10.919 1.815.13.01ZM297.316 156.919a.806.806 0 0 0 .367-.09l11.968-6.327a.788.788 0 0 0-.736-1.392l-11.968 6.327a.789.789 0 0 0-.398.886.79.79 0 0 0 .767.596Z" fill="#fff"/><path d="M362.987 401.377c.441.006.871-.137 1.222-.406a4.133 4.133 0 0 0 1.698-2.851c.386-3.253-2.997-7.429-6.554-11.848a80.196 80.196 0 0 1-4.955-6.591c-1.998-3.077-5.724-8.242-9.681-13.71-5.894-8.152-12.578-17.39-13.167-19.395-.18-.606-.812-2.467-1.768-5.281-4.516-13.291-16.504-48.587-16.291-56.945a.791.791 0 0 0-1.51-.342.766.766 0 0 0-.065.302c-.22 8.658 11.409 42.878 16.374 57.498.916 2.697 1.578 4.662 1.748 5.221.623 2.105 5.711 9.235 13.404 19.871 3.943 5.452 7.659 10.6 9.631 13.654a82.023 82.023 0 0 0 5.065 6.717c3.207 3.972 6.524 8.079 6.214 10.656a2.583 2.583 0 0 1-1.092 1.788c-.047.037-.18.14-.553.034-6.447-1.799-27.823-40.428-29.582-44.957-.949-2.431-5.205-5.968-11.096-10.863-4.502-3.743-9.607-7.992-14.229-12.608-10.464-10.453-21.22-14.086-21.67-14.236a.788.788 0 0 0-.988 1.108.78.78 0 0 0 .492.387c.107.033 10.87 3.68 21.05 13.853 4.662 4.663 9.811 8.942 14.34 12.705 5.274 4.389 9.833 8.175 10.633 10.227 1.188 3.047 23.061 43.774 30.637 45.889.224.072.457.113.693.123ZM146.158 375.226a.794.794 0 0 0 .63-.313c10.18-13.457 34.21-15.339 39.628-15.076 3.487.167 12.925 4.293 13.021 4.329a.779.779 0 0 0 .603.013.782.782 0 0 0 .434-.417.782.782 0 0 0-.152-.862.807.807 0 0 0-.252-.176c-.4-.176-9.801-4.289-13.577-4.469-.28 0-28.819-.333-40.961 15.702a.787.787 0 0 0 .153 1.102.776.776 0 0 0 .473.167Z" fill="#2E2E47"/><path d="M183.939 358.958a.79.79 0 0 0 .55-.224.794.794 0 0 0 .236-.545c.213-8.229.739-17.317 1.255-18.413 1.765-2.247 6.094-25.845 6.137-26.085 1.552-8.794 8.326-35.605 8.386-35.875a.793.793 0 0 0-.087-.596.787.787 0 0 0-1.438.21c-.07.269-6.851 27.137-8.412 35.985-1.722 9.744-4.856 23.947-5.741 25.309-.35.333-1.223 1.912-1.666 19.438a.796.796 0 0 0 .77.809l.01-.013Zm2.021-19.158ZM178.504 425.897a.834.834 0 0 0 .18-.02c.623-.147 15.318-3.623 21.609-9.831 6.151-6.061 16.291-16.724 16.394-16.83a.791.791 0 0 0-.059-1.082.788.788 0 0 0-1.083-.004c-.1.107-10.227 10.75-16.358 16.794-5.994 5.894-20.713 9.384-20.859 9.418a.793.793 0 0 0-.459.315.792.792 0 0 0 .635 1.24Z" fill="#2E2E47"/><path d="M251.594 832.306a63.42 63.42 0 0 0 12.498-1.229c10.257-2.105 12.897-4.356 12.987-4.452a.525.525 0 0 0-.321-.896.526.526 0 0 0-.371.106c-.044.037-2.665 2.192-12.522 4.213-11.089 2.274-26.051 1.579-31.942-4.189a.522.522 0 0 0-.366-.128.524.524 0 0 0-.37.877c3.786 3.71 10.303 5.019 15.099 5.461 1.721.177 3.503.237 5.308.237Z" fill="#FA634B"/><path d="M213.29 128.922s-4.935-47.094 1.093-54.038c6.027-6.943 50.951-8.228 69.117-5.66 18.165 2.567 25.891 4.115 27.177 11.059 1.285 6.943 6.533 40.737 4.912 51.214-1.622 10.476-23.058-4.376-23.058-4.376s-45.793-9.291-65.271 1.508c.014.004-13.21 8.799-13.97.293Z" fill="#2E2E47"/><path d="M285.874 570.961a.526.526 0 0 0 .51-.413c1.731-7.899 9.737-14.243 19.87-22.276 6.085-4.822 12.988-10.286 19.648-17.017 17.513-17.732 24.08-38.276 24.144-38.479a.526.526 0 0 0-.999-.317c-.064.204-6.561 20.514-23.891 38.057-6.603 6.687-13.473 12.132-19.534 16.934-10.297 8.162-18.432 14.606-20.244 22.871a.526.526 0 0 0 .403.626.597.597 0 0 0 .093.014ZM273.935 762.043a.523.523 0 0 0 .523-.522c0-.213.223-1.839.503-3.897 1.122-8.325 3.753-27.813 3.953-40.191l.04-2.611c.25-15.798.556-35.459 3.2-52.949 2.774-18.382 2.112-49.822 2.105-50.138a.545.545 0 0 0-.536-.513.525.525 0 0 0-.513.536c0 .333.666 31.666-2.095 49.952-2.664 17.576-2.96 37.278-3.21 53.106l-.04 2.607c-.2 12.322-2.824 31.766-3.946 40.068-.363 2.688-.51 3.787-.51 4.04a.527.527 0 0 0 .526.512ZM156.695 553.111a.541.541 0 0 0 .26-.07c.1-.056 2.587-1.498 12.301-8.728 9.714-7.23 28.196-21.979 28.383-22.115a.532.532 0 0 0 .076-.743.524.524 0 0 0-.742-.077c-.183.147-18.676 14.886-28.353 22.092-9.624 7.164-12.172 8.659-12.198 8.659a.53.53 0 0 0-.281.608.526.526 0 0 0 .544.391l.01-.017ZM154.59 747.727a.527.527 0 0 0 .52-.446 172.328 172.328 0 0 0 1.638-19.345c.113-4.872.064-11.122 0-18.359-.06-7.795-.126-16.634 0-25.745.064-4.822.21-10.35.363-16.198.403-15.528.866-33.124.103-46.831-1.035-18.649 0-47.261 0-47.551a.524.524 0 0 0-.506-.543.502.502 0 0 0-.203.031.508.508 0 0 0-.34.475c0 .287-1.039 28.939 0 47.644.76 13.654.3 31.24-.106 46.749-.15 5.851-.296 11.379-.36 16.211-.123 9.124-.053 17.966 0 25.765.057 7.23.104 13.474 0 18.316a169.972 169.972 0 0 1-1.628 19.211.524.524 0 0 0 .439.6l.08.016Z" fill="#fff"/><path d="m77.455 284.348-6.064-12.11s5.369-14.143 4.726-22.175c-.644-8.031-1.608-18.802-8.332-25.903-6.724-7.101-12.9-8.922-18.044-5.295-5.144 3.627-5.6 14.512-1.665 23.634 3.934 9.122 11.781 23.546 11.781 23.546s-7.96 16.535-7.486 27.174c.474 10.639 5.754 21.427 11.16 25.988 5.406 4.561 14.285 6.739 19.268 5.321a44.77 44.77 0 0 0 9.38-4.024l9.049 18.089s.47 5.517-3.502 8.561c-3.973 3.044-6.425 1.497-8.125-.207 0 0 5.65-3.88 2.245-9.434a8.476 8.476 0 0 0-3.15-2.981 8.356 8.356 0 0 0-4.192-1.017 8.23 8.23 0 0 0-4.116 1.218 8.224 8.224 0 0 0-2.94 3.129c-3.105 5.595 1.61 19.234 14.125 17.265 12.514-1.97 14.92-12.33 14.56-16.416-.36-4.085-10.159-20.305-10.159-20.305s6.828-4.041 7.459-12.471c.631-8.431-4.065-19.076-11.099-22.182-7.034-3.106-14.88.595-14.88.595Zm11.23 31.71a17.504 17.504 0 0 1-12.423 2.988 18.612 18.612 0 0 1-10.889-5.605 18.776 18.776 0 0 1-5.1-11.174c-1.132-9.84 7.372-25.586 7.372-25.586l4.935 9.847s-6.833 6.439-5.45 13.424c1.383 6.986 8.25 9.327 8.25 9.327s-2.998-7.677-1.07-11.829c1.927-4.153 3.286-3.559 3.286-3.559l11.09 22.167Zm-30.81-69.995a17.947 17.947 0 0 1-2.022-9.529c.217-2.499 1.12-4.848 3.68-5.279 5.833-.985 8.143 5.321 8.414 9.659.272 4.337-3.718 17.84-3.718 17.84l-6.353-12.691Zm38.296 56.285c1.379 5.283-3.437 9.998-3.437 9.998l-10.498-20.983c8.108-.216 12.532 5.678 13.917 10.956l.018.029Z" fill="#FF7E9C"/><path d="M409.909 137.34s-16.073-3.928-19.422-1.454-2.863 16.989 1.381 19.121c4.244 2.132 16.86 1.162 20.032-3.933 3.172-5.095 11.967-45.365 11.967-45.365l24.627 22.192-5.885 33.28s-16.243-4.462-20.847.731c-4.605 5.193-7.004 16.053 3.163 20.033 10.166 3.979 21.325-4.976 23.543-9.94 2.218-4.964 11.082-56.372 11.082-56.372l-36.755-29.697-12.886 51.404Z" fill="#3FBFB8"/></svg>