<svg width="510" height="840" fill="none" xmlns="http://www.w3.org/2000/svg"><path d="M88.832 330.811c-1.205-.536-53.79-28.481-51.288-56.138 2.502-27.657 22.59-65.353 22.59-65.353s18.648 0 17.608-3.223c-1.04-3.223-10.451-7.785-10.451-7.785s12.17-17.761 6.013-16.577c-6.157 1.184-12.263 9.782-12.263 9.782s-5.488-9.504-9.906-9c-4.417.505-.607 18.092-.607 18.092s-25.32 48.219-27.451 68.844c-6.436 62.491 58.032 79.202 58.032 79.202l7.723-17.844ZM348.187 389.039c.916.958 45.192 40.765 70.316 28.934 25.124-11.831 53.646-43.627 53.646-43.627s-6.374-17.505-3.007-17.649c3.367-.144 10.894 7.146 10.894 7.146s12.511-17.504 13.51-11.326c.999 6.178-4.974 14.868-4.974 14.868s10.812 1.905 11.842 6.23c1.029 4.324-16.784 6.765-16.784 6.765s-36.615 40.322-55.263 49.424c-56.498 27.472-94.297-27.358-94.297-27.358l14.117-13.407ZM251.458 523.123s98.602-9.411 131.284 14.416c32.682 23.826 30.89 72.54 30.89 72.54s17.247-16.474 20.099-10.379c2.852 6.096-4.5 13.056-4.5 13.056s16.187-.659 14.684 8.238c-1.504 8.896-16.104 11.944-16.104 11.944s10.502 2.059 7.835 10.379c-1.74 5.427-26.658-.885-32.197-7.815-5.54-6.93-13.211-66.002-32.806-79.151-18.431-12.356-104.368-4.747-104.368-4.747l-14.817-28.481ZM148.769 521.723s-70.645-13.458-87.048 23.528c-16.403 36.986 1.75 102.762 1.75 102.762s-23.188-5.684-22.652 1.029c.535 6.714 10.42 9.061 10.42 9.061s-14.364 7.517-8.598 14.498c5.766 6.981 19.914 2.307 19.914 2.307s-8.073 7.022-1.606 12.912c4.21 3.83 22.652-14.076 23.991-22.849 1.338-8.773-22.385-102.432-2.42-112.131 19.966-9.7 68.875-2.368 68.875-2.368l-2.626-28.749Z" fill="#4B1EA6" stroke="#261097" stroke-linejoin="round"/><path d="M408.968 312.266c1.905 2.338 4.963 10.833 8.979 9.751 3.202-.875-.659-6.178-1.545-8.052-3.15-6.497 5.653-.638 7.857.659 1.843 1.03 12.685 7.816 13.231 2.955.432-3.799-7.208-6.61-9.761-7.938-1.473-.773-4.335-1.916-4.706-3.676-.515-2.461 2.43-3.182 4.304-3.089 3.707.123 7.208 1.75 10.966 1.575 2.183-.103 6.343-.103 7.579-2.286 2.347-4.118-6.117-6.013-8.598-6.724-4.325-1.266-10.729 1.205-14.416-1.513 1.287-6.178 10.853-6.847 14.962-10.596 1.029-.947 2.43-2.893 1.297-4.386-1.39-1.833-5.292-.371-7.074.052a26.328 26.328 0 0 0-9.267 3.778c-1.627 1.092-5.035 3.687-5.241.34-.185-3.181 4.469-6.466 6.446-8.289 2.45-2.265 5.745-5.529 6.24-9.009.298-2.06-.608-3.738-2.997-3.46-2.862.33-4.942 3.861-6.373 5.931-.845 1.215-7.548 12.644-9.36 8.392-.927-2.193 3.151-7.342 4.118-9 1.823-3.089 3.584-6.857 3.574-10.554 0-1.555-.824-4.87-2.945-5.014-2.348-.155-3.954 3.82-4.397 5.55-.443 1.73-4.047 15.445-7.023 13.128-1.709-1.318-.432-6.312.093-7.712 1.308-3.542 3.336-7.301 1.668-11.1-3.367-7.64-8.237 2.626-8.319 6.518 0 1.915 3.593 16.145.051 15.558-2.77-.453-1.524-8.402-2.389-10.297-1.029-2.316-3.933-3.851-5.55-1.359-2.121 3.254 1.503 7.445 3.151 10.029 4.448 6.992-2.955 12.665-2.523 20.182.278 4.798 2.636 11.182 8.547 13.19.051-.072 7.331 3.902 9.421 6.466Z" fill="#F79CEA" stroke="#261097" stroke-linejoin="round"/><path d="M349.33 318.002s25.309-8.443 39.127-8.381c13.819.062 16.702 2.512 16.702 2.512s4.366-7.887.082-18.39c-4.644-11.326-12.717-15.908-12.717-15.908s-2.275 8.855-14.477 14.796c-12.201 5.942-34.834 12.305-34.834 12.305l6.117 13.066Z" fill="#34ECE1" stroke="#261097" stroke-linejoin="round"/><path d="M136.475 192.248c-2.997.381-11.059 4.438-13.222.886-1.729-2.832 4.768-4.119 6.662-4.778 6.755-2.533-3.665-4.345-6.178-4.922-2.059-.494-14.569-3.089-11.625-6.971 2.307-3.089 9.803.185 12.552.968 1.596.453 4.459 1.596 5.941.566 2.06-1.421.423-3.974-1.029-5.22-2.77-2.461-6.446-3.707-9.031-6.405-1.513-1.575-4.53-4.448-3.923-6.888 1.143-4.603 8.578-.134 10.874 1.029 3.995 2.06 6.94 8.238 11.481 8.825 3.336-5.375-3.151-12.439-3.542-17.989-.103-1.4.216-3.768 2.059-4.067 2.276-.371 4.119 3.377 5.097 4.901a26.382 26.382 0 0 1 4.118 9.113c.433 1.905 1.123 6.127 3.563 3.841 2.44-2.286 1.215-7.764 1.03-10.441-.216-3.336-.361-7.97 1.678-10.832 1.215-1.699 3.017-2.286 4.562-.443 1.853 2.214.926 6.178.535 8.69-.226 1.462-3.233 14.364 1.03 12.531 2.193-.947 2.78-7.496 3.212-9.37.814-3.511 2.121-7.444 4.675-10.111 1.03-1.122 3.954-2.965 5.591-1.606 1.812 1.503.227 5.488-.638 7.053-.865 1.565-7.671 13.952-3.944 14.343 2.142.237 4.654-4.273 5.241-5.653 1.493-3.459 2.605-7.588 6.436-9.184 7.702-3.223 4.118 7.547 1.544 10.451-1.277 1.421-13.725 9.267-10.75 11.244 2.317 1.575 6.889-5.045 8.845-5.849 2.338-.978 5.499-.082 4.963 2.842-.71 3.81-6.178 4.356-9.184 5.097-8.042 1.998-6.58 11.213-12.079 16.372-3.511 3.285-9.606 6.281-15.28 3.666.031.02-7.98-2.101-11.264-1.689Z" fill="#F79CEA" stroke="#261097" stroke-linejoin="round"/><path d="M175.798 237.481s-12.531-23.548-22.57-32.949c-10.04-9.401-13.839-9.679-13.839-9.679s2.265-8.732 12.603-13.386c11.203-5.056 20.171-2.78 20.171-2.78s-4.438 7.99.32 20.696c4.757 12.707 16.773 32.95 16.773 32.95l-13.458 5.148Z" fill="#34ECE1" stroke="#261097" stroke-linejoin="round"/><path d="M300.523 232.189c-80.994-40.394-125.95-20.995-143.187-10.626-24.599 14.796-60.678 37.315-71.686 64.869 5.53.309 11.214-1.554 16.413-.37-20.17 17.504-36.532 40.157-57.661 57.219 7.846 2.759 17.061-1.226 25.124 1.029-8.238 14.683-26.288 24.507-32.538 41.259 7.074 2.06 12.943-4.118 19.688-1.534-10.925 14.869-26.113 28.934-33.527 46.335 8.485-2.275 15.909-11.913 25.588-11.398-8.135 20.964-18.39 43.658-27.936 64.18 8.042-3.934 20.893-13.767 29.686-17.423-6.487 13.52-17.309 47.036-12.665 59.938 7.208-6.384 17.505-14.57 26.947-16.29-2.39 6.261-6.014 27.493-3.007 30.293 1.37 1.267 15.198-7.269 17.175-8.968 0 0 11.172 28.306 19.378 41.3 6.178-4.119 26.453-17.432 28.831-14.59.824 1.029 3.254 30.89 11.636 39.92 6.559-7.208 19.913-15.507 23.569-12.119 0 0 .237 29.572-3.275 38.17 10.411-4.819 24.29-17.216 36.255-21.623 4.191 6.919 1.617 22.652 2.822 31.456 7.805-7.722 27.204-22.9 27.204-22.9 3.459 1.256 10.677 17.505 10.214 27.441a89.769 89.769 0 0 0 24.136-38.098c10.739 8.67 16.969 16.331 27.636 23.631-.556-9.689 2.502-19.255 2.554-28.779 5.601 6.178 8.309 16.083 17.319 18.637 1.452-13.479-4.119-31.92.473-45.007 7.568 5.663 13.057 15.568 19.564 22.56 7.764-17.371 2.574-40.343.134-58.341 7.928 2.059 17.35 4.345 24.712 5.447-.329-11.224-7.619-36.265-15.445-46.336 7.321 1.102 14.91 10.606 21.119 18.092 4.335-9.195.741-41.187-3.573-50.979 8.237 4.715 8.639 7.207 14.549 12.984 2.152-11.512-.494-21.016-4.119-32.569 9.741 6.714 7.352 2.059 12.985 8.783 6.291-10.78 40.847-156.757-77.092-215.593Z" fill="#34ECE1" stroke="#261097" stroke-linejoin="round"/><path d="M266.409 272.852c-33.011-13.221-77.39-23.436-98.478 11.048-21.088 34.484-10.636 70.77 47.458 95.997 58.094 25.227 96.882 21.88 110.093-7.744 17.473-39.086 1.853-74.898-59.073-99.301Z" fill="#F79CEA" stroke="#261097" stroke-linejoin="round"/><path d="M212.434 290.675a16.08 16.08 0 0 0-4.242-1.874l.854-4.798a2.213 2.213 0 0 0-1.781-2.575 2.223 2.223 0 0 0-2.585 1.792l-.916 5.148c-.39.021-.778.062-1.163.124l-1.03-4.592a2.23 2.23 0 0 0-2.682-1.653 2.23 2.23 0 0 0-1.653 2.682l1.143 4.932c-.701.36-1.36.795-1.967 1.298a2.22 2.22 0 0 0-.87 1.537 2.219 2.219 0 0 0 1.239 2.237 2.21 2.21 0 0 0 1.764.078c.284-.108.543-.273.76-.485 0 0 4.603-3.861 10.812 0 4.716 2.914 3.985 7.094 3.892 7.537a2.223 2.223 0 0 0 1.658 2.667h.103a2.226 2.226 0 0 0 2.564-1.689c.041-.329 1.658-7.681-5.9-12.366ZM304.507 338.966a17.738 17.738 0 0 1 3.604 3.676l4.644-2.77a2.472 2.472 0 0 1 3.388.844 2.472 2.472 0 0 1-.855 3.388l-4.953 2.955c.134.422.248.834.34 1.246l5.149-.69a2.47 2.47 0 0 1 2.629 2.14 2.472 2.472 0 0 1-1.981 2.751l-5.581.752c-.092.87-.286 1.727-.576 2.553a2.472 2.472 0 0 1-4.634-1.699c0-.061 2.214-6.291-4.221-11.244-4.871-3.748-8.928-1.359-9.35-1.091a2.453 2.453 0 0 1-1.856.375 2.474 2.474 0 0 1-1.573-1.055l-.061-.103a2.45 2.45 0 0 1 .741-3.315c.36-.186 7.342-4.737 15.146 1.287ZM239.309 363.565c-2.265 3.48-6.466 4.767-9.36 2.873-2.893-1.895-3.418-6.251-1.143-9.731 2.276-3.48 6.467-4.767 9.36-2.883 2.893 1.884 3.419 6.25 1.143 9.741Z" fill="#4B1EA6"/><path d="m105.78 357.078-15.857 30.9 35.864-11.295-8.011-8.485-12.809 7.229 8.155-13.18-7.342-5.169ZM136.815 403.579l-11.172 54.079 37.12-25.104-9.246-8.701-16.743 14.797 8.114-30.406-8.073-4.665ZM246.917 446.68l6.755 36.317 23.27-36.564-11.563.433-8.546 18.843-4.139-19.245-5.777.216ZM296.538 492.749c.278 1.966 5.066 31.539 5.066 31.539l18.163-33.032-10.101-.567-4.839 12.501-1.668-11.78-6.621 1.339ZM327.191 419.271l12.542 29.088 11.089-36.244-8.7 2.234-3.388 18.513-4.809-15.548-6.734 1.957ZM168.982 496.198l-5.375 32.826 28.985-25.948-9.03-2.935-12.47 12.387 2.935-16.042-5.045-.288ZM74.972 459.222c-.34 1.854-9.452 23.786-9.452 23.786l29.367-10.575-6.395-6.909-11.234 5.601 3.09-9.648-5.376-2.255ZM66.066 396.371l-10.019 26.864 18.472-13.839-2.409-4.263-5.951 4.644 4.448-13.849-4.541.443ZM237.105 545.653l2.605 24.084 13.901-30.632-7.249 1.235-3.995 11.378-1.617-8.587-3.645 2.522ZM178.722 564.95l-5.643 30.859 25.495-20.851-5.375-5.447-11.522 10.647 3.212-14.076-6.167-1.132ZM113.132 302.937l-21.118 17.824 29.685 1.596-4.767-5.334-10.101-.577 8.484-8.01-2.183-5.499Z" fill="#97FCF6"/><path d="M195.054 315.366a11.931 11.931 0 0 1-3.166 6.157 11.93 11.93 0 0 1-12.953 2.789 11.923 11.923 0 1 1 16.119-8.946ZM306.742 375.982a11.92 11.92 0 0 1-9.219 9.516 11.922 11.922 0 0 1-7.245-22.599 11.918 11.918 0 0 1 14.539 4.166 11.928 11.928 0 0 1 1.925 8.917Z" fill="#FFBBEF"/></svg>