<svg width="510" height="840" fill="none" xmlns="http://www.w3.org/2000/svg"><path d="m67.922 441.807-6.34-12.662s5.614-14.787 4.941-23.185c-.672-8.397-1.68-19.659-8.711-27.083-7.03-7.425-13.487-9.328-18.865-5.536-5.379 3.792-5.855 15.173-1.742 24.711 4.114 9.537 12.318 24.618 12.318 24.618s-8.322 17.288-7.827 28.412c.496 11.124 6.017 22.403 11.668 27.171 5.652 4.769 14.936 7.046 20.145 5.563a46.732 46.732 0 0 0 9.808-4.207l9.462 18.914s.491 5.767-3.662 8.95c-4.154 3.183-6.718 1.565-8.496-.217 0 0 5.909-4.056 2.348-9.863a8.852 8.852 0 0 0-3.293-3.116 8.723 8.723 0 0 0-4.384-1.064 8.596 8.596 0 0 0-7.377 4.545c-3.246 5.85 1.684 20.11 14.768 18.051 13.084-2.059 15.6-12.891 15.224-17.163-.376-4.272-10.622-21.23-10.622-21.23s7.139-4.225 7.798-13.04c.66-8.814-4.25-19.944-11.604-23.192-7.354-3.247-15.557.623-15.557.623Zm11.742 33.154a18.303 18.303 0 0 1-12.99 3.124 19.462 19.462 0 0 1-11.384-5.86 19.633 19.633 0 0 1-5.332-11.683c-1.183-10.289 7.708-26.752 7.708-26.752l5.16 10.295s-7.145 6.733-5.699 14.037c1.446 7.303 8.625 9.752 8.625 9.752s-3.134-8.028-1.118-12.369c2.015-4.341 3.436-3.721 3.436-3.721l11.594 23.177Zm-32.213-73.183a18.768 18.768 0 0 1-2.114-9.964c.227-2.612 1.17-5.068 3.847-5.519 6.1-1.03 8.514 5.564 8.798 10.099.283 4.535-3.888 18.653-3.888 18.653l-6.643-13.269Zm40.04 58.848c1.441 5.524-3.593 10.454-3.593 10.454L72.92 449.141c8.478-.226 13.103 5.936 14.552 11.455l.018.03Z" fill="#FFC97D"/><path d="M443.881 306.327s-16.804-4.107-20.306-1.52c-3.502 2.586-2.994 17.763 1.443 19.992 4.438 2.229 17.629 1.215 20.945-4.112 3.317-5.327 12.512-47.432 12.512-47.432l25.749 23.203-6.153 34.797s-16.983-4.666-21.797.763c-4.814 5.43-7.323 16.785 3.307 20.946 10.63 4.161 22.296-5.203 24.615-10.393 2.319-5.19 11.588-58.939 11.588-58.939l-38.43-31.05-13.473 53.745Z" fill="#84CECA"/><path d="M115.023 771.025s2.092-23.344 7.322-43.153c3.137-11.703 25.195-11.787 28.479-5.23 3.284 6.558-10.292 42.296-5.617 47.211 4.676 4.916-22.915 12.885-30.184 1.172Z" fill="#EAE6E4"/><path d="M196.424 784.349c-1.527-4.278-11.024-4.895-19.872-7.322-8.848-2.426-13.167-8.565-17.445-13.157a11.385 11.385 0 0 0-1.904-1.621 11.22 11.22 0 0 0-11.922-.157 55.04 55.04 0 0 1-4.54 2.385c-5.229 2.447-3.681 5.512-11.023 3.985-7.342-1.527-11.63 0-11.63 0l-3.368.91c-1.6.439-1.956 4.539-1.757 8.984 5.229 2.374 16.619 7.164 24.411 7.854 10.406.921 45.297 3.065 50.808 1.527 2.531-.701 5.721-1.841 8.367-2.855a4.632 4.632 0 0 0-.125-.533Z" fill="#2E2E47"/><path d="M188.213 787.758c-5.512 1.538-40.402-.606-50.808-1.527-7.792-.69-19.171-5.48-24.411-7.854.22 4.905 1.109 10.239 1.757 11.505 1.224 2.447 11.934 3.671 17.445 4.591 5.512.92 58.182.889 60.661.282 2.479-.606 4.968-5.679 3.807-9.873-2.73 1.036-5.92 2.176-8.451 2.876Z" fill="#2E2E47"/><path d="M328.748 739.888s-4.529-47.639 8.817-63.191c7.875-9.183 30.403 1.809 30.498 9.141.094 7.331-10.167 59.614-8.085 66.078 2.081 6.463-29.797 1.684-31.23-12.028Z" fill="#EAE6E4"/><path d="m329.25 738.33 3.43.649s4.529.491 10.459 5.062c5.93 4.57 5.899 1.161 11.651 1.223 2.092 0 3.817-.062 5.125-.167a11.243 11.243 0 0 1 10.668 5.334c.43.72.781 1.484 1.046 2.28 1.861 6.003 3.043 13.377 9.967 19.453 6.923 6.077 15.196 10.752 14.715 15.28 0 .178-.052.356-.083.523-.785 4.288-5.356 7.729-7.73 7.227-2.374-.502-49.888-23.438-54.448-26.669-4.56-3.232-13.669-8.995-13.701-11.735 0-1.433 1.496-6.62 3.441-11.139 1.684-4.12 3.786-7.655 5.46-7.321Z" fill="#2E2E47"/><path d="m63.001 146.187-5 7.216s11.61 17.341 27.57 14.423c15.96-2.918 18.261-8.44 24.714-1.841 6.453 6.6 20.416 6.453 28.699 3.075 8.283-3.378 34.367-30.853 47.064-38.99 12.697-8.137 22.183-22.256 20.039-28.396-2.144-6.139-6.599-13.491-7.321-25.237-.722-11.745-1.705-21.733-11.442-28.95-9.737-7.216-16.127-5.835-19.767-11.43-3.64-5.596-25.279-2.689-25.101 1.913.178 4.602-24.055 58.025-34.691 66.936-10.637 8.911-44.764 41.281-44.764 41.281Z" fill="#51302A"/><path d="M157.203 115.794c-1.318-.115-2.458-.22-3.441-.324l-1.924-15.49c4.905-7.06 16.88 1.235 20.143 8.441a52.906 52.906 0 0 0 2.154 4.183c-2.698 2.061-7.708 3.985-16.932 3.19Z" fill="#CC8B70"/><path d="M127.981 149.116c6.38-8.922 15.594-19.014 26.67-26.419l-.889-7.227c.983.104 2.092.209 3.441.324 9.225.795 14.234-1.129 16.933-3.138l.533.9c14.642-3.661 31.01-1.046 47.692 13.502 0 0 30.55 41.72 64.478 91.755-34.66 32.526-100.665 42.316-121.395 44.659-13.836-40.873-52.419-93.439-37.463-114.356Z" fill="#FFD3B5"/><path d="M165.048 360.309c1.6-28.322 6.976-61.843 4.696-79.486a91.327 91.327 0 0 0-4.289-17.372c20.73-2.343 86.735-12.133 121.395-44.659 14.517 21.398 22.089 48.11 35.727 69.896 18.826 30.163 65.179 104.211 79.152 194.323 7.447 47.953 5.752 230.982 5.752 230.982s-31.805 21.649-59.437 21.649c-48.351 0-51.802-4.842-51.802-4.842l12.781-237.414-41.72-114.199-58.977 364.707s-32.956 9.005-62.659 5.554c-22.643-2.636-54.228-5.543-54.228-5.543s65.44-239.213 73.609-383.596Z" fill="#82A7AF"/><path d="M259.343 327.803a22.316 22.316 0 0 0 6.014-.847c4.466-1.318 7.133-4.037 7.729-7.865 1.381-8.9-9.413-45.36-9.841-46.908a.484.484 0 0 0-.576-.313.47.47 0 0 0-.313.575c.115.376 11.17 37.808 9.82 46.5-1.297 8.367-13.188 7.938-13.303 7.927a.467.467 0 0 0-.332.12.445.445 0 0 0-.106.145.442.442 0 0 0-.043.175.45.45 0 0 0 .265.438c.054.025.114.04.174.043l.512.01Z" fill="#2E2E47"/><path d="M267.292 379.647a.457.457 0 0 0 .408-.502c-.073-.721-7.677-72.416-26.586-107.056a.462.462 0 0 0-.805.45c18.825 34.514 26.398 105.979 26.481 106.679a.464.464 0 0 0 .045.179.432.432 0 0 0 .113.145.44.44 0 0 0 .344.105ZM205.983 224.963c-7.917-11.505-15.814-27.381-22.162-40.131-4.079-8.199-7.604-15.28-10.061-19.055-4.696-7.175-19.82-27.308-27.193-37.004l.711-.585c7.321 9.685 22.497 29.88 27.193 37.087 2.499 3.817 6.034 10.918 10.124 19.139 6.338 12.739 14.224 28.584 22.099 40.026 4.728 6.861 10.292 17.215 15.448 27.611l-.9.261c-5.062-10.302-10.574-20.562-15.259-27.349ZM149.443 174.28c-6.275-10.355-13.492-22.947-17.644-30.205l.628-.764c4.11 7.206 11.504 19.997 17.78 30.498 3.451 5.721 8.011 11.327 12.832 17.267 8.232 10.135 17.561 21.619 23.397 36.418 3.692 9.413 8.304 20.457 12.55 30.435l-.92.188c-4.184-9.926-8.786-20.918-12.467-30.331-5.784-14.642-15.061-26.094-23.25-36.166-4.842-5.93-9.423-11.567-12.906-17.34ZM173.917 133.051c4.957 9.664 7.143 13.168 14.945 25.645 2.427 3.88 5.449 8.722 9.256 14.872 7.782 12.551 15.354 25.75 22.675 38.52 7.321 12.77 14.255 24.85 19.966 33.708l-.879.324c-5.71-8.858-12.603-20.917-19.871-33.572-7.269-12.655-14.883-25.959-22.654-38.488-3.807-6.16-6.83-10.992-9.256-14.873-7.813-12.55-9.999-16.012-14.977-25.697.273-.13.539-.277.795-.439ZM238.07 197.278c-7.258-14.245-12.55-19.348-17.205-23.846a47.295 47.295 0 0 1-9.57-11.829c-5.867-10.375-23.95-37.222-31.941-49.009l1.046-.147c8.137 11.976 25.917 38.405 31.732 48.707a45.803 45.803 0 0 0 9.413 11.609c4.717 4.56 10.061 9.716 17.393 24.055 6.181 12.143 15.563 26.45 23.909 38.875l-.816.439c-8.388-12.372-17.759-26.69-23.961-38.854ZM276.266 227.389c-12.278-19.077-28.144-44.492-31.083-52.733-3.326-9.34-11.076-16.734-17.906-23.229a107.847 107.847 0 0 1-8.032-8.168c-5.03-6.004-17.445-21.754-24.254-30.414.46.083.931.177 1.391.282 6.924 8.806 18.711 23.731 23.574 29.536a105.598 105.598 0 0 0 7.949 8.095c6.913 6.578 14.747 14.046 18.146 23.595 2.866 8.042 18.721 33.468 30.968 52.482l-.753.554Z" fill="#2E2E47"/><path d="m125.199 160.233 75.523 81.966s143.672 19.798 144.331 34.304c.659 14.507-121.552 29.661-168.773-2.092-39.911-26.837-52.074-74.487-53.946-98.929-.701-9.517 2.865-15.249 2.865-15.249Z" fill="#CC8B70"/><path d="M212.52 119.758s21.963 18.397 26.921 35.298c5.438 18.46 11.891 54.271 11.891 54.271S194.74 321.904 216.819 334.34c22.078 12.435 88.679-72.05 87.299-115.559-1.381-43.508-91.598-99.023-91.598-99.023ZM137.698 91.561a15.46 15.46 0 0 1-5.439-2.855c-2.636-1.935-4.654-10.783-2.594-13.251 2.061-2.468 4.916.293 5.564 0 .649-.293-2.803-12.373.23-20.227 3.033-7.855 9.685-15.689 21.807-16.233 12.122-.543 18.93 5.324 23.48 9.978 4.549 4.654 6.076 15.144 7.059 20.102.984 4.957 2.343 6.275 3.577 8.89 2.845 5.961 4.184 10.26 3.138 17.518-1.046 7.259-7.687 15.082-19.401 16.264-11.714 1.181-31.167-2.186-37.421-20.186Z" fill="#CC8B70"/><path d="M174.408 87.65h.105c1.799 0 4.989-1.57 5.71-3.745.304-.93.283-2.364-1.589-3.849a11.443 11.443 0 0 1-4.309-7.038v-.074s-1.046-3.137.188-5.051a3.938 3.938 0 0 1 3.075-1.663c2.688-.47 7.321-1.046 8.231-.46a.46.46 0 0 0 .627-.178.438.438 0 0 0 .046-.352.446.446 0 0 0-.223-.276c-1.559-.889-8.074.23-8.807.356a4.78 4.78 0 0 0-3.733 2.092c-1.402 2.238-.419 5.396-.293 5.794a12.402 12.402 0 0 0 4.654 7.572c1.161.93 1.6 1.883 1.276 2.845-.565 1.715-3.336 3.064-4.853 3.137-.418 0-.722-.073-.774-.22a.459.459 0 0 0-.85-.017.462.462 0 0 0-.008.353c.095.271.461.773 1.527.773ZM155.781 70.12a.452.452 0 0 0 .251-.083 23.413 23.413 0 0 1 9.214-3.138.458.458 0 0 0 .36-.497.456.456 0 0 0-.454-.412 23.667 23.667 0 0 0-9.622 3.315.47.47 0 0 0-.201.29.474.474 0 0 0 .065.348.473.473 0 0 0 .387.178Z" fill="#2E2E47"/><path d="M184.386 89.323s.931 6.652-5.115 8.514c-6.045 1.861-15.322-5.617-15.322-5.617s9.507-.157 12.624-.68c2.008-.324 7.813-2.217 7.813-2.217Z" fill="#fff"/><path d="M158.113 78.09a.463.463 0 0 0 .377-.198s.763-.952 3.597-1.873a5.233 5.233 0 0 1 5.021.712.455.455 0 0 0 .283.205.446.446 0 0 0 .344-.059.472.472 0 0 0 .147-.638c-.314-.523-2.73-2.186-6.077-1.098-3.138 1.046-3.985 2.092-4.068 2.228a.458.458 0 0 0 .115.638c.078.05.168.08.261.083ZM187.251 75.747a.41.41 0 0 0 .283-.104.445.445 0 0 0 .176-.302.444.444 0 0 0-.093-.336s-1.045-1.255-3.754-1.684c-2.709-.43-4.853.816-5.083 1.474a.46.46 0 0 0 .612.577.449.449 0 0 0 .235-.231 5.07 5.07 0 0 1 4.089-.91 5.376 5.376 0 0 1 3.138 1.338.437.437 0 0 0 .397.178Z" fill="#2E2E47"/><path d="M166.093 80.58s-8.367.303-9.779 3.45c-1.412 3.149 7.886 2.804 11.986.88 4.1-1.925-.115-4.508-2.207-4.33ZM191.508 77.777s-7.018-1.13-8.535 1.736c-1.516 2.866 6.276 4.09 9.916 2.897 3.639-1.192.397-4.445-1.381-4.633Z" fill="#C96B59"/><path d="M342.689 264.549s9.204.167 14.642 3.137c5.439 2.971 9.727 7.144 12.959 8.943 3.231 1.799-6.631 5.888-12.906 1.453-6.276-4.434-21.65-12.184-14.695-13.533Z" fill="#CC8B70"/><path d="M320.444 264.465s19.108-.659 22.245.104c3.138.764 30.101 21.964 27.758 26.921-2.343 4.958-6.359 3.975-7.321 4.497-.963.523-6.192 3.274-6.736 3.473-.544.199-2.771.575-4.246 1.046-1.475.47-4.779 3.315-6.589 3.357-1.809.042-9.842-10.699-12.854-12.477-3.012-1.778-18.93-7.447-21.001-9.277-2.071-1.831 4.037-15.605 8.744-17.644ZM205.837 324.665s-5.92 7.05-7.259 13.053c-1.338 6.003-1.046 12.028-1.778 15.688-.732 3.661 8.796-1.119 9.57-8.764.774-7.646 5.041-24.338-.533-19.977Z" fill="#CC8B70"/><path d="M220.385 307.827s-13.052 13.983-14.548 16.839c-1.496 2.855-3.232 37.118 2.092 38.613 5.323 1.496 7.164-2.175 8.199-2.562 1.036-.387 6.537-2.51 7.039-2.782.502-.272 2.259-1.715 3.587-2.521 1.329-.805 5.627-1.422 6.861-2.761 1.235-1.338-1.6-14.443-.951-17.884.648-3.441 6.829-19.161 6.819-21.964-.011-2.802-14.465-7.174-19.098-4.978Z" fill="#CC8B70"/><path d="M163.949 50.406s-8.231 30.581-21.89 36.783c-13.659 6.202-26.147 16.734-28.479 19.694-2.333 2.96-1.987 9.204-7.321 10.626-5.334 1.423-8.598 3.242-11.662 6.223s1.402 12.551-7.426 15.249c-8.827 2.698-5.647 12.906-11.232 14.726-5.585 1.82-29.766 5.313-21.054-17.393 2.761-7.206 10.365 3.755 20.374-13.513 3.137-5.396 9.517-5.365 12.477-8.775 2.96-3.409 1.778-7.99 6.955-12.979 5.177-4.989 15.605-3.054 18.062-9.193 2.458-6.14 11.055-32.548 14.35-41.448 3.294-8.9 10.26-16.483 18.951-13.816s17.895 13.816 17.895 13.816Z" fill="#774237"/><path d="M160.487 50.866s24.056 11.986 27.308 14.203c3.253 2.217 14.004 25.865 14.004 25.865s2.887-12.78 1.653-18c-1.234-5.219-5.679-9.831-6.275-16.43-.596-6.6-4.842-20.165-16.577-19.496-11.735.67-10.585-5.679-23.48-5.982-12.896-.303-18.198 2.092-16.619 5.177 1.579 3.085 19.986 14.663 19.986 14.663Z" fill="#774237"/><path d="M163.949 136.231c6.84 0 16.965-5.031 18.376-7.834 1.287-2.521-1.715-6.736-4.11-10.114-.742-1.046-1.443-2.039-1.882-2.792a.462.462 0 0 0-.856.29c.009.06.029.118.061.17.449.795 1.171 1.799 1.924 2.866 2.144 3.012 5.073 7.133 4.048 9.162-1.37 2.708-14.977 9.465-20.824 6.735-5.585-2.604-5.574-11.923-5.574-12.017a.452.452 0 0 0-.45-.46.46.46 0 0 0-.46.46c0 .408 0 9.998 6.108 12.854a8.754 8.754 0 0 0 3.639.68ZM295.196 214.493a.457.457 0 0 0 .453-.347.465.465 0 0 0-.233-.521c-.209-.115-20.918-10.961-44.199-4.748a.453.453 0 0 0-.34.385.458.458 0 0 0 .016.18.468.468 0 0 0 .215.279.462.462 0 0 0 .35.045c22.904-6.118 43.32 4.56 43.519 4.665a.444.444 0 0 0 .219.062ZM293.032 259.759a.46.46 0 0 0 .449-.377.44.44 0 0 0-.066-.341.438.438 0 0 0-.289-.192l-59.354-12.132a.457.457 0 0 0-.461.696c.062.1.16.173.273.203l59.354 12.132.094.011ZM272.627 293.478a.46.46 0 0 0 .332-.779.488.488 0 0 0-.147-.103.48.48 0 0 0-.175-.039c-.241 0-24.693-.439-54.584-3.618a.46.46 0 0 0-.266.859.45.45 0 0 0 .172.05c29.933 3.138 54.385 3.63 54.668 3.63ZM187.252 259.759a.463.463 0 0 0 .439-.325c2.803-8.827 13.209-16.796 13.314-16.869a.499.499 0 0 0 .119-.136.473.473 0 0 0 .045-.351.464.464 0 0 0-.729-.246 54.167 54.167 0 0 0-5.71 5.23c-2.772 2.907-6.401 7.321-7.918 12.132a.476.476 0 0 0 .032.355.478.478 0 0 0 .272.231l.136-.021ZM375.268 509.67a6.562 6.562 0 0 0 2.008-.198c.481-.178.513-.523.492-.659-.094-1.046-4.508-2.186-26.252-6.453-10.019-1.977-22.298-4.393-24.86-5.481a87.768 87.768 0 0 1 8.796-1.045c14.098-1.381 35.413-3.462 35.559-11.275a2.603 2.603 0 0 0-1.119-2.238c-7.844-5.868-58.882 9.988-61.047 10.668a.459.459 0 0 0-.304.575.447.447 0 0 0 .223.275.46.46 0 0 0 .353.028c.136 0 13.376-4.183 27.391-7.53 23.281-5.595 30.707-4.863 32.83-3.274a1.695 1.695 0 0 1 .753 1.475c-.115 6.997-22.622 9.193-34.712 10.375-7.51.743-9.413.994-9.895 1.642a.563.563 0 0 0 0 .544c.429 1.046 6.537 2.395 25.928 6.202 9.915 1.945 21.963 4.33 24.965 5.47-6.024.554-40.789-4.926-54.386-7.196a.455.455 0 0 0-.345.078.47.47 0 0 0-.188.299.472.472 0 0 0 .387.533c1.903.272 43.257 7.185 53.423 7.185ZM174.701 587.327a.48.48 0 0 0 .24-.063.46.46 0 0 0 .157-.638l-16.577-27.621a.459.459 0 0 0-.784.47l16.577 27.632a.452.452 0 0 0 .387.22Z" fill="#2E2E47"/><path d="M122.261 82.86a15.681 15.681 0 0 1 5.344-12.07l-.146-1.13 4.727-1.265a11.216 11.216 0 0 1 2.782-.356c7.018 0 12.708 6.631 12.708 14.82 0 7.53-4.801 13.743-11.034 14.705a11.157 11.157 0 0 1-2.835.063l-2.698.063-.105-.743c-5.072-1.935-8.743-7.51-8.743-14.088Z" fill="#FA634B"/><path d="M112.994 736.521a.474.474 0 0 0 .45-.356c.293-1.286 29.044-128.747 30.404-149.267 1.286-19.265 13.91-58.569 18.062-71.528l.805-2.499c1.276-4.017 3.211-9.079 5.093-13.963 2.887-7.52 5.606-14.642 5.753-17.466.063-1.119.397-8.534.91-19.767 1.516-33.468 4.685-103.165 5.647-118.832 1.255-20.52-2.782-64.102-2.823-64.541a.468.468 0 0 0-.164-.314.464.464 0 0 0-.159-.086c-.058-.018-.119-.024-.179-.018a.467.467 0 0 0-.419.502c0 .439 4.069 43.926 2.824 64.394-.962 15.688-4.183 85.375-5.648 118.853-.512 11.233-.847 18.648-.909 19.767-.136 2.699-2.835 9.727-5.69 17.174-1.883 4.905-3.828 9.977-5.114 14.014l-.806 2.5c-4.183 12.958-16.807 52.377-18.104 71.747-1.359 20.447-30.09 147.845-30.33 149.131a.464.464 0 0 0 .061.343.463.463 0 0 0 .284.201l.052.011ZM316.992 725.016a.47.47 0 0 0 .461-.407c.094-.837 9.653-83.147 7.321-100.499-2.239-17.037-.324-111.573.324-114.711a.448.448 0 0 0-.115-.513.474.474 0 0 0-.33-.138.453.453 0 0 0-.329.138c-.146.168-.335.377-.732 16.055a2669.949 2669.949 0 0 0-.628 35.392c-.23 19.568-.407 53.884.9 63.798 2.269 17.247-7.269 99.442-7.321 100.268a.458.458 0 0 0 .408.513l.041.104ZM324.721 484.967h.147a.46.46 0 0 0 .282-.586c-.188-.575-19.307-57.136-25.237-69.456-5.229-10.919-19.547-41.448-22.455-51.394-2.813-9.664-6.944-24.212-6.986-24.359a.47.47 0 0 0-.575-.324.457.457 0 0 0-.314.575c0 .147 4.183 14.642 6.997 24.359 2.813 9.716 15.949 37.933 22.496 51.54 5.91 12.268 25.007 68.787 25.206 69.352a.46.46 0 0 0 .439.293Z" fill="#fff"/><path d="M187.251 576.544h.105a.47.47 0 0 0 .345-.554l-20.834-94.662a.47.47 0 0 0-.554-.345.46.46 0 0 0-.345.544l20.834 94.693a.466.466 0 0 0 .449.324Z" fill="#2E2E47"/><path d="M131.935 71.124a.456.456 0 0 0 .322-.142.46.46 0 0 0 .128-.328c.098-2.597.385-5.184.857-7.74a.46.46 0 0 0-.366-.533.482.482 0 0 0-.544.377c-.48 2.614-.77 5.26-.868 7.917a.467.467 0 0 0 .471.45ZM128.818 71.124a.465.465 0 0 0 .323-.142.474.474 0 0 0 .127-.328c.099-2.597.385-5.184.858-7.74a.46.46 0 0 0-.366-.533.48.48 0 0 0-.544.377 54.811 54.811 0 0 0-.868 7.917.449.449 0 0 0 .293.419.465.465 0 0 0 .177.03Z" fill="#fff"/><path d="M130.429 97.711c-6.741 0-12.205-6.378-12.205-14.245 0-7.867 5.464-14.245 12.205-14.245s12.206 6.378 12.206 14.245c0 7.867-5.465 14.245-12.206 14.245Z" fill="#FA634B"/><path d="M130.418 98.171c6.987 0 12.666-6.589 12.666-14.695 0-8.105-5.679-14.704-12.666-14.704a.459.459 0 0 0-.325.785.459.459 0 0 0 .325.135c6.474 0 11.746 6.181 11.746 13.785 0 7.603-5.23 13.774-11.746 13.774a.459.459 0 0 0-.325.785.459.459 0 0 0 .325.135Z" fill="#2E2E47"/><path d="M133.347 64.065h-4.508a1.36 1.36 0 0 1-1.318-1.715c1.705-6.359 9.622-28.312 37.652-29.891 0 0 9.36.47 11.348 4.529 0 0-35.278 7.206-41.93 26.147a1.34 1.34 0 0 1-1.244.93Z" fill="#FA634B"/></svg>