<svg width="510" height="840" fill="none" xmlns="http://www.w3.org/2000/svg"><path d="M191.904 146.3s-22.766 109.489-57.085 135.612c-42.881 32.63-124.312-89.359-120.32-102.177.77-2.483 9.943-11.187 14.841-7.416 20.224 15.594 83.168 53.845 83.168 53.845s30.088-53.449 44.564-69.477c23.439-25.903 34.832-10.387 34.832-10.387Z" fill="#FFD3B5"/><path d="M116.737 250.276a.555.555 0 0 0 .551-.488c1.347-9.885-4.03-23.278-4.264-23.844a.552.552 0 0 0-.513-.348.562.562 0 0 0-.517.344.564.564 0 0 0-.004.429c.053.137 5.498 13.661 4.191 23.268a.564.564 0 0 0 .111.417.549.549 0 0 0 .377.212l.068.01Z" fill="#2E2E47"/><path d="M113.293 218.436s19.306 42.72 40.398 47.907c21.092 5.186 34.153-66.682 36.646-79.728 2.493-13.047-15.788-46.443-15.788-46.443s-14.789 9.421-35.002 37.504c-7.333 10.159-19.814 27.035-26.254 40.76Z" fill="#EAE6E4"/><path d="M337.332 488.879c28.298 6.411 132.129 37.407 135.056 38.125 36.666 8.923 10.109 44.399-9.997 31.225-8.426-5.508-126.435 8.295-172.922-7.426-21.921-38.749 43.023-51.493 47.863-61.924Z" fill="#FFD3B5"/><path d="M188.346 308.546c30.738-7.514 66.043-14.291 75.835-4.586 17.515 17.35 74.522 164.208 74.522 164.208s5.127 9.392 9.943 10.485c-4.84 10.431-34.363 57.084-59.177 72.145-7.246-2.439-13.198-5.479-17.311-9.27-8.373-7.679-83.719-139.856-109.036-193.481l25.224-39.501Z" fill="#2E2E47"/><path d="M105.662 567.416c23.707 5.772 52.874 6.982 65.33 7.231-.273 8.699-.824 18.999-1.844 30.738-.444 5.132-2.927 27.108-3.728 32.884-3.669 26.347-23.136 94.653-32.484 128.748-3.796 13.856-32.104 6.957-31.64-.757 1.332-22.141 4.069-149.649 4.366-198.844Z" fill="#FFD3B5"/><path d="M106.638 536.479c8.641-68.355 32.846-170.239 36.651-214.116 3.903.054 42.169-7.021 64.584-17.945l20.408 95.414 1.279 5.479-.278-.361c-14.637 54.211-45.346 142.248-45.346 142.248s3.415 1.439 3.562 6.059c.049 1.411-3.118 4.011-3.084 5.821.093 5.245.088 12.144-.17 20.536-26.459 5.464-54.875-6.426-78.582-12.198.088-14.851.366-26.132.976-30.937Z" fill="#2E2E47"/><path d="M241.313 68.865c6.548 8.567-5.708 31.791-20.941 37.719-15.232 5.928-8.372-43.91-1.824-41.54 6.547 2.372 19.257-.76 22.765 3.82ZM207.629 44.655s-13.115-2.854-19.912 2.771c-6.796 5.626-1.097 18.712 3.416 19.385 4.513.673 21.536-19.302 16.496-22.156Z" fill="#9C6F43"/><path d="M154.979 255.892c-6.133 11.197-12.891 20.492-20.165 26.02l-.747.541c-2.547-17.306 20.912-94.882 20.912-94.882v68.321Z" fill="#2E2E47"/><path d="M47.007 767.665c3.059-2.595 14.485.762 19.028.127 4.542-.634 28.718-18.052 35.485-16.549l6.211 1.376s6.255 2.21 8.294 3.615c2.039 1.405-3.474 9.875 1.303 12.846 4.776 2.972 7.226-3.586 8.577-7.104 1.352-3.517 8.938-.79 8.938-.79-.453 1.4 3.874 9.226 3.904 13.739a48.67 48.67 0 0 0 .424 6.782 56.075 56.075 0 0 1 3.933 12.881c1.322 7.387-13.476 7.377-19.741 6.533-6.265-.844-5.46-5.855-10.129-5.933-4.669-.078-2.054 4.049-6.025 3.415-3.972-.634-45.448-9.948-52.152-12.802-6.704-2.855-11.105-15.54-8.05-18.136Z" fill="#FA634B"/><path d="M109.697 757.663s-10.202-5.127-12.134-4.327c-1.933.8-12.769 5.659-13.213 6.684-.444 1.025 8.617 7.318 11.1 6.045 2.483-1.273 14.247-8.402 14.247-8.402Z" fill="#fff"/><path d="M479.799 612.689c-1.288-1.888-5.426-19.516-11.061-33.28-4.264-10.417-10.734-17.506-9.758-20.336 1.742-5.181 1.996-5.937 2.03-6.025 0 0 4.391-12.461 5.991-14.335 1.601-1.873 9.451 4.499 12.91.064 3.459-4.435-3.967-4.499-7.318-6.221-3.352-1.722-.186-5.562-.186-5.562 1.342.595 9.587-2.874 14.076-2.44 2.252.26 4.52.359 6.787.298 0 0 3.996 1.351 11.48.82 7.485-.532 5.206 16.827 3.742 22.96-1.463 6.133-.761 5.914-1.785 9.797-1.025 3.884-4.431 41.813-7.978 48.176-3.547 6.362-16.671 9.401-18.93 6.084Z" fill="#FA634B"/><path d="M465.489 551.843s-4.606 8.294-4.016 10.28c.591 1.985 6.455 10.782 7.431 11.333.976.552 7.611-5.366 6.591-7.991-1.019-2.625-10.006-13.622-10.006-13.622Z" fill="#fff"/><path d="M209.946 143.026c10.216-2.645 16.808-15.125 18.784-19.365-4.25-3.771-7.162-11.758-7.255-17.433-.264-15.442-18.433-3.064-18.433-3.064s3.757 12.881-9.573 23.698c-.083.063-1.195.824-2.898 1.995-5.557 13.349 7.792 17.155 19.375 14.169Z" fill="#FFD3B5"/><path d="M198.934 121.153a23.373 23.373 0 0 0 4.513-11.768c0-.063.039-.122.054-.185l14.373-4.718s-.751 12.744-11.885 15.52c-2.313.59-4.674.975-7.055 1.151Z" fill="#2E2E47"/><path d="M267.333 149.983c-5.231-9.758-29.348-18.116-38.603-26.346-1.952 4.239-8.568 16.72-18.784 19.364-11.583 2.991-24.912-.814-19.375-14.149-5.215 3.586-15.998 11.037-19.76 14.208-10.49 8.841-25.546 85.036-26.605 109.656-.337 7.772-4.357 86.802-4.679 90.261 16.072 1.264 62.251 19.453 139.891-13.315-.561-4.84-9.382-33.728-12.944-75.297-3.498-40.833 8.938-89.281.859-104.382Z" fill="#EAE6E4"/><path d="M268.113 198.339c-1.015 11.519-2.064 23.956-2.249 36.3-9.597-15.535-18.657-49.766-18.657-49.766l20.906 13.466Z" fill="#2E2E47"/><path d="M191.405 59.258s-5.196 13.632-6.781 17.784c-1.586 4.152-3.952 7.992-5.499 14.418-1.547 6.425.756 19.14 12.29 23.316 11.534 4.177 23.868-1.829 28.133-7.67 4.264-5.84 5.547-15.027 5.547-15.027s2.21 3.157 5.401-1.059c3.191-4.215 6.831-11.124 2.742-12.905-4.089-1.78-5.284 1.733-6.196 1.162-.913-.571-.254-7.563-.766-13.35-.503-5.63-19.912-21.413-34.871-6.669Z" fill="#FFD3B5"/><path d="M201.7 75.056a.548.548 0 0 0 .439-.21c.059-.073 1.313-1.59 3.972-1.502 2.888.097 7.216 1.625 7.26 1.64a.562.562 0 0 0 .376-1.055c-.186-.068-4.533-1.6-7.597-1.703-3.25-.102-4.825 1.845-4.879 1.928a.562.562 0 0 0 .097.786.518.518 0 0 0 .332.116Z" fill="#2E2E47"/><path d="M224.89 83.868c-.381-.23-1.142 1.864-1.81 3.996a9.71 9.71 0 0 1-5.743 6.176 29.177 29.177 0 0 1-9.592 2.098c-3.147.03-9.324-6.118-17.608-6.45 0 0-7.197 2.308-9.504 3.245-.752.302-1.367.532-1.864.78-.591 6.792 2.342 17.331 12.646 21.063 11.534 4.172 25.859-.976 29.796-7.011 3.074-4.713 4.816-19.92 5.001-22.019.225-2.551-.571-1.424-1.322-1.878Z" fill="#9C6F43"/><path d="M191.005 83.14s-3.044 4.392-2.634 6.563c.409 2.171 3.342 3.762 6.557 2.342 3.215-1.42 2.927-2.44 2.927-3.996s-5.928-6.377-6.85-4.908ZM187.405 96.11s-3.903 3.56-1.517 5.278c2.386 1.718 1.834-.917 4.245-.039 2.41.878 5.991 3.786 8.957 2.796 2.967-.991 1.318-7.909-.595-7.319-1.912.59-11.09-.717-11.09-.717Z" fill="#FFD3B5"/><path d="M212.337 87.932c-.274 1.61-2.967 2.498-6.016 1.98-3.049-.516-5.308-2.229-5.04-3.839.268-1.61 2.966-2.498 6.016-1.98 3.049.516 5.328 2.229 5.04 3.839ZM186.478 84.839c-.273 1.61-1.952 2.664-3.786 2.361-1.835-.302-3.074-1.859-2.801-3.469.274-1.61 1.952-2.664 3.782-2.356 1.829.307 3.088 1.859 2.805 3.464Z" fill="#FFA982"/><path d="M231.116 81.506s-2.83 6.343-6.567 5.436c-1.952-.488-.976-10.89-1.005-13.462-.044-4.293 1.951-9.67 1.951-9.67s9.773 3.942 5.621 17.696Z" fill="#9C6F43"/><path d="M193.011 92.962a5.569 5.569 0 0 0 4.967-2.927.559.559 0 0 0-.04-.619.55.55 0 0 0-.373-.212.562.562 0 0 0-.558.28c-1.498 2.63-4.499 2.84-6.558 1.697-1.078-.6-2.098-1.741-1.424-2.99 2.39-4.435 6.523-13.554 5.708-15.564-1.317-3.25-7.836-1.503-8.577-1.293a.558.558 0 1 0 .307 1.073c1.742-.488 6.436-1.342 7.236.64.488 1.146-2.44 8.654-5.66 14.612-.859 1.595-.107 3.415 1.869 4.498a6.47 6.47 0 0 0 3.103.805ZM211.077 82.087a.558.558 0 0 0 .464-.868 12.787 12.787 0 0 0-4.289-3.699c-3.078-1.707-5.747.342-5.855.43a.556.556 0 0 0-.21.374.555.555 0 0 0 .281.556.564.564 0 0 0 .622-.047 4.337 4.337 0 0 1 4.625-.337 11.888 11.888 0 0 1 3.904 3.342.566.566 0 0 0 .458.249Z" fill="#2E2E47"/><path d="M204.042 77.457s-.542.078-1.112 1.23c-.571 1.15.058 3.078 1.097 3.903 1.04.824 2.718-.103 3.025-1.035.308-.932-.044-3.088-.488-3.454a3.413 3.413 0 0 0-2.522-.644ZM190.805 79.11a.554.554 0 0 0 .558-.551.563.563 0 0 0-.04-.214 3.793 3.793 0 0 0-3.016-2.269c-3.488-.351-4.108.78-4.215 1.137a.56.56 0 0 0 1.054.37c.127-.19.902-.614 3.049-.395a2.654 2.654 0 0 1 2.088 1.571.562.562 0 0 0 .522.352Z" fill="#2E2E47"/><path d="M188.351 76.89c-.419-.458-2.034-.882-2.62.196-.585 1.078-.351 3.06.332 3.976.683.918 2.084.18 2.44-.712.356-.893.478-2.771-.152-3.46Z" fill="#2E2E47"/><path d="M197.777 97.466s-4.723-3.972-7.65-3.606c-2.927.366-2.527 2.781-2.503 3.454.024.674.488 1.284 4.269 1.815 3.781.532 7.319.742 6.831-.205a6.894 6.894 0 0 0-.947-1.458Z" fill="#fff"/><path d="M195.289 49.27s-1.463 4.28 2.586 8.646c4.05 4.367 27.928 17.311 29.86 19.492 1.932 2.18 10.939 2.357 12.954 2.059 2.015-.298.922-17.189-2.772-24.824-3.693-7.636-11.665-6.797-11.665-6.797s-5.967-9.333-14.179-8.826c-19.165 1.19-16.784 10.25-16.784 10.25Z" fill="#9C6F43"/><path d="M261.815 144.002s82.401 45.213 100.117 63.485c34.343 35.402 70.448 150.815 57.055 154.572-13.393 3.757-79.308-110.641-79.308-110.641s-83.807-53.372-90.369-70.526c-10.456-27.347 12.505-36.89 12.505-36.89ZM21.002 188.64l-9.7-9.271S.568 167.567.08 165.899c-.488-1.669 1.405-3.66 1.405-3.66s-1.068-3.498 0-4.996a9.814 9.814 0 0 1 2.884-2.498s-1.244-4.918 1.952-6.191c3.195-1.274 10.172 6.469 11.71 7.318 1.536.849.614-1.786 5.654-.673 5.04 1.112 5.757 11.524 5.401 15.613-.356 4.088 3.288 9.377 3.288 9.377l-11.373 8.451Z" fill="#FFD3B5"/><path d="m417.255 340.757 6.674 12.149s6.899 14.959 6.894 16.764c-.005 1.805-2.522 3.172-2.522 3.172s-.034 3.781-1.542 4.927a10.134 10.134 0 0 1-3.615 1.567s-.298 5.23-3.869 5.484c-3.572.253-8.017-9.534-9.246-10.822-1.23-1.288-1.161 1.566-5.787-1.093-4.625-2.659-2.093-13.139-.487-17.077 1.605-3.937-.327-10.245-.327-10.245l13.827-4.826Z" fill="#FFD3B5"/><path d="M349.241 192.514s-6.079 40.222-28.962 51.507c0 0-67.408-42.384-73.673-60.602-5.493-15.91-.307-28.245 2.016-31.284 2.322-3.04 4.03-12.617 7.713-11.939 22.424 4.128 92.906 52.318 92.906 52.318Z" fill="#EAE6E4"/><path d="M170.992 575.208a.565.565 0 0 0 .547-.444c0-.117 2.537-11.768 4.298-17.076 1.381-4.177.717-5.367-.917-7.612a27.36 27.36 0 0 1-1.635-2.439c-1.405-2.405 0-4.796 2.196-8.416a56.45 56.45 0 0 0 4.274-8.256c1.951-4.879 3.952-10.133 6.279-16.247 1.888-4.971 4.03-10.602 6.387-16.647 5.108-13.1 17.462-54.752 17.564-55.172a.563.563 0 0 0-.798-.622.563.563 0 0 0-.275.305c-.122.42-12.466 42.023-17.565 55.079-2.361 6.055-4.503 11.71-6.396 16.657-2.322 6.109-4.328 11.388-6.27 16.233a54.2 54.2 0 0 1-4.196 8.094c-2.288 3.82-3.937 6.577-2.2 9.558.625 1.068 1.22 1.893 1.693 2.552 1.464 2.034 2.02 2.795.761 6.606-1.776 5.367-4.303 17.076-4.328 17.193a.576.576 0 0 0-.004.219.55.55 0 0 0 .434.445l.151-.01ZM338.703 486.601a.582.582 0 0 0 .156 0 .577.577 0 0 0 .194-.1.58.58 0 0 0 .141-.167.572.572 0 0 0 .045-.426l-1.463-5.006a.534.534 0 0 0-.234-.312c-.142-.093-14.272-9.363-20.917-20.556-6.801-11.451-25.302-54.127-31.152-73.082-5.753-18.633-11.632-39.906-11.71-40.116a.56.56 0 0 0-.676-.348.562.562 0 0 0-.402.646c.058.21 5.943 21.497 11.71 40.149 5.854 19.029 24.434 61.827 31.259 73.322 6.372 10.734 19.429 19.687 21.097 20.804l1.381 4.806a.556.556 0 0 0 .571.386ZM216.449 449.198a.56.56 0 0 0 .527-.746c-.195-.542-19.76-54.05-49.078-71.824a.568.568 0 1 0-.58.976c28.981 17.564 48.414 70.711 48.604 71.233a.565.565 0 0 0 .527.361Z" fill="#fff"/><path d="M324.486 242.07a.6.6 0 0 0 .268-.069c18.091-9.953 22.565-38.217 22.604-38.5a.547.547 0 0 0-.101-.415.561.561 0 0 0-.78-.121.565.565 0 0 0-.221.365c-.044.278-4.435 28.006-22.039 37.691a.572.572 0 0 0-.168.138.567.567 0 0 0-.121.41.567.567 0 0 0 .271.422.568.568 0 0 0 .287.079Z" fill="#2E2E47"/><path d="M165.65 557.741a.558.558 0 0 0 .543-.504.561.561 0 0 0-.431-.603c-.132-.03-13.476-2.791-26.63-6.06-25.463-6.343-26.137-8.616-26.132-8.855.21-.396 2.518-2.108 27.811 2.249 13.324 2.293 26.546 5.152 26.678 5.177a.562.562 0 0 0 .663-.425.565.565 0 0 0-.429-.668c-.132-.025-13.373-2.889-26.722-5.187-24.268-4.181-28.24-3.093-28.991-1.678a1.133 1.133 0 0 0 0 1.063c2.239 4.767 48.302 14.398 53.527 15.477l.113.014Z" fill="#fff"/><path d="M274.739 309.483a.563.563 0 0 0 .531-.382.554.554 0 0 0-.033-.428c-8.738-17.525-10.334-41.852-10.348-42.096a.57.57 0 0 0-.175-.412.577.577 0 0 0-.194-.121.56.56 0 0 0-.732.373.567.567 0 0 0-.017.228c0 .244 1.625 24.79 10.466 42.53a.557.557 0 0 0 .502.308Z" fill="#2E2E47"/></svg>