<svg width="510" height="840" fill="none" xmlns="http://www.w3.org/2000/svg"><path d="M87.733 390.889a12.132 12.132 0 0 1-13.553-10.513 12.13 12.13 0 0 1 10.513-13.553l105.452-14.346a12.133 12.133 0 0 1 13.554 10.513 12.129 12.129 0 0 1-10.513 13.553L87.733 390.889Z" fill="#261097"/><path d="m80.993 379.78-52.357-7.881s11.225-24.393 34.653-17.512c23.427 6.881 17.704 25.393 17.704 25.393Z" fill="#261097"/><path d="m81.356 376.669-46.28 25.529s18.902 18.996 38.416 4.495c19.515-14.502 7.864-30.024 7.864-30.024Z" fill="#261097"/><path d="M89.15 402.103c12.838-1.622 21.931-13.345 20.309-26.184-1.622-12.839-13.345-21.932-26.184-20.31-12.84 1.622-21.932 13.345-20.31 26.184 1.622 12.839 13.345 21.932 26.184 20.31Z" fill="#97FCF6" stroke="#261097" stroke-linejoin="round"/><path d="M87.954 392.64a13.891 13.891 0 0 1-15.601-14.765 13.892 13.892 0 0 1 24.352-8.125 13.892 13.892 0 0 1-8.751 22.89Zm-2.985-23.619a9.916 9.916 0 0 0-8.161 12.972 9.91 9.91 0 0 0 8.704 6.752 9.921 9.921 0 0 0 9.568-5.458 9.914 9.914 0 0 0 .967-5.674 9.95 9.95 0 0 0-11.078-8.592Z" fill="#FFE166"/><path d="M195.473 253.437c1.694-16.734-10.499-31.672-27.232-33.366-16.734-1.693-31.672 10.499-33.366 27.233-1.693 16.733 10.499 31.672 27.233 33.365 16.734 1.694 31.672-10.499 33.365-27.232Z" fill="#97FCF6" stroke="#261097" stroke-linejoin="round"/><path d="M33.127 741.46c7.571-.956 12.934-7.87 11.977-15.442-.956-7.571-7.87-12.934-15.442-11.977-7.571.957-12.934 7.87-11.977 15.442.957 7.572 7.87 12.934 15.442 11.977ZM70.69 752.686c7.572-.956 12.934-7.87 11.978-15.441-.957-7.572-7.87-12.935-15.442-11.978-7.572.957-12.934 7.87-11.978 15.442.957 7.572 7.87 12.934 15.442 11.977ZM86.086 704.982a12.437 12.437 0 0 1-5.361-.496 12.131 12.131 0 0 1-7.691-15.341l52.105-156.77c.243-.708.549-1.393.915-2.046l71.23-128.831a12.13 12.13 0 0 1 21.147 11.598l-70.714 127.819-51.651 155.879a12.059 12.059 0 0 1-9.98 8.188Z" fill="#261097"/><path d="m108.575 695.441-37.96-10.76A61.658 61.658 0 0 0 2.65 709.657l95.823 28.959 10.101-43.175Z" fill="#97FCF6"/><path d="M159.883 533.246a23.432 23.432 0 1 1-46.495 5.874 23.432 23.432 0 0 1 46.495-5.874Z" fill="#FFE166" stroke="#261097" stroke-linejoin="round"/><path d="M138.376 549.968a13.89 13.89 0 0 1-12.769-22.28 13.894 13.894 0 1 1 12.769 22.28Zm-2.984-23.62a9.914 9.914 0 1 0 2.486 19.672 9.914 9.914 0 0 0-2.486-19.672Z" fill="#97FCF6"/><path d="m10.132 700.574 90.614 28.179.908-3.9-88.21-27.423c-1.195 1.022-2.237 2.062-3.312 3.144Z" fill="#FFE166"/><path d="m108.575 695.441-37.96-10.76A61.658 61.658 0 0 0 2.65 709.657l95.823 28.959 10.101-43.175Z" stroke="#261097" stroke-linejoin="round"/><path d="M492.47 650.418a13.822 13.822 0 0 1-12.059-9.502 13.819 13.819 0 1 1 26.918-3.2 13.767 13.767 0 0 1-4.788 9.442 13.775 13.775 0 0 1-10.071 3.26ZM473.851 684.905a13.813 13.813 0 0 1-12.058-9.503 13.818 13.818 0 1 1 26.918-3.2 13.767 13.767 0 0 1-4.788 9.442 13.768 13.768 0 0 1-10.072 3.261ZM459.607 630.271a11.795 11.795 0 0 1-5.884-.732l-166.855-64.231a12.24 12.24 0 0 1-7.492-8.667l-30.839-137.736a12.128 12.128 0 1 1 23.663-5.336l29.438 131.44 160.811 61.929a12.125 12.125 0 0 1 4.212 19.85 12.126 12.126 0 0 1-7.054 3.483Z" fill="#261097"/><path d="m452.768 594.119-15.807 36.061a61.628 61.628 0 0 0 15.445 70.72l41.719-91-41.357-15.781Z" fill="#97FCF6"/><path d="M314.622 551.014a23.429 23.429 0 0 1-11.608 23.314 23.427 23.427 0 0 1-25.98-1.813 23.426 23.426 0 0 1-8.258-24.7 23.426 23.426 0 0 1 7.243-11.52 23.43 23.43 0 0 1 38.603 14.719Z" fill="#FFE166" stroke="#261097" stroke-linejoin="round"/><path d="M293.116 567.736a13.89 13.89 0 0 1-13.815-6.908 13.893 13.893 0 1 1 13.815 6.908Zm-2.985-23.619a9.945 9.945 0 0 0-8.236 13.004 9.95 9.95 0 0 0 19.319-4.375 9.95 9.95 0 0 0-11.087-8.667l.004.038Z" fill="#97FCF6"/><path d="m442.675 690.093 42.442-83.484-3.738-1.42-41.289 80.916c1.012 1.424 1.82 2.722 2.585 3.988Z" fill="#FFE166"/><path d="m452.768 594.119-15.807 36.061a61.628 61.628 0 0 0 15.445 70.72l41.719-91-41.357-15.781Z" stroke="#261097" stroke-linejoin="round"/><path d="M238.563 207.566c-.193-1.528 9.496-28.49 9.496-28.49l41.698 2.302-3.626 33.614-47.568-7.426Z" fill="#97FCF6" stroke="#261097" stroke-linejoin="round"/><path d="M201.772 164.713c-11.16-28.415 29.688-66.391 84.84-64.844 60.589 1.732 91.327 60.186 70.396 77.857-20.931 17.67-142.75 18.414-155.236-13.013Z" fill="#FFE166" stroke="#261097" stroke-linejoin="round"/><path d="M247.19 140.731a13.132 13.132 0 0 1-2.977 7.027 13.138 13.138 0 0 1-20.32-.166 13.137 13.137 0 0 1-1.31-14.546 13.141 13.141 0 0 1 21.766-1.96 13.142 13.142 0 0 1 2.841 9.645ZM297.278 145.947a13.145 13.145 0 0 1-9.356 11.215 13.138 13.138 0 0 1-13.941-4.355 13.144 13.144 0 1 1 23.297-6.86Z" fill="#fff"/><path d="m259.862 165.246-1.229.156a8.634 8.634 0 0 1-6.049-2.643 8.449 8.449 0 0 1-2.398-6.093 1.95 1.95 0 0 1 1.991-1.917 1.99 1.99 0 0 1 1.917 1.991 4.657 4.657 0 0 0 8.002 3.417 4.625 4.625 0 0 0 1.402-3.281 1.951 1.951 0 0 1 3.131-1.004c.338.279.572.664.665 1.092a8.563 8.563 0 0 1-2.605 6.045 8.674 8.674 0 0 1-4.827 2.237Z" fill="#261097"/><circle cx="227.793" cy="138.186" r="4" transform="rotate(-7.201 227.793 138.186)" fill="#261097"/><circle cx="278.777" cy="142.832" r="4" transform="rotate(-7.201 278.777 142.832)" fill="#261097"/><path d="M171.22 204.795s-19.874 224.346 77.478 230.971c97.353 6.624 125.768-208.544 125.768-208.544s-65.634-34.477-203.246-22.427Z" fill="#FFE166"/><path d="M208.907 256.24a2.1 2.1 0 0 1-2.235 2.361 2.096 2.096 0 0 1-1.846-1.432 2.096 2.096 0 0 1 .616-2.254 2.106 2.106 0 0 1 2.667-.073c.441.342.728.845.798 1.398ZM288.098 425.262a85.476 85.476 0 0 0 4.802-3.332c10.979-41.318 39.332-138.048 59.036-203.178l-3.7-1.122c-15.827 52.377-48.646 163.183-60.138 207.632Z" fill="#97FCF6"/><path d="m182.952 203.881-2.28 43.663-11.294.481c.165 1.304-.006 2.65-.014 3.787 24.163-1.085 38.732-1.109 43.915-1.121l-7.958 67.621-32.248-2.095.523 4.135 33.351 2.145.373-.047a1.989 1.989 0 0 0 1.749-1.735l8.433-71.655a1.926 1.926 0 0 0-.459-1.532 1.993 1.993 0 0 0-1.486-.682s-10.396-.201-31.127.488l2.313-43.705-3.791.252Z" fill="#97FCF6"/><path d="M201.747 313.994a2.11 2.11 0 0 1-1.465.673 2.098 2.098 0 0 1-1.511-.562 2.138 2.138 0 0 1-.074-2.981 2.098 2.098 0 0 1 2.276-.542c.26.096.497.243.7.431a2.144 2.144 0 0 1 .074 2.981ZM192.244 211.526a2.105 2.105 0 0 1-3.595-.475 2.1 2.1 0 0 1 .545-2.395 2.11 2.11 0 0 1 1.465-.673 2.1 2.1 0 0 1 1.511.562 2.138 2.138 0 0 1 .074 2.981ZM325.049 339.065a2.098 2.098 0 0 1-2.273.539 2.108 2.108 0 0 1-1.368-1.893 2.104 2.104 0 0 1 3.53-1.622 2.144 2.144 0 0 1 .111 2.976Z" fill="#97FCF6"/><path d="M171.22 204.795s-19.874 224.346 77.478 230.971c97.353 6.624 125.768-208.544 125.768-208.544s-65.634-34.477-203.246-22.427Z" stroke="#261097" stroke-linejoin="round"/><path d="M395.598 430.717a12.235 12.235 0 0 1-5.483-.556l-134.876-46.886a12.134 12.134 0 0 1-7.478-15.444 12.131 12.131 0 0 1 15.444-7.477l112.748 39.198-35.576-123.398a12.121 12.121 0 0 1 3.934-13.091 12.124 12.124 0 0 1 13.624-1.115 12.122 12.122 0 0 1 5.74 7.477l42.075 146.081a12.094 12.094 0 0 1-5.241 13.635 12.091 12.091 0 0 1-4.892 1.725l-.019-.149Z" fill="#261097"/><path d="m253.736 370.785-37.264-37.607s23.541-12.891 38.219 6.526c14.679 19.417-.955 31.081-.955 31.081Z" fill="#261097"/><path d="m254.294 367.422-52.436-7.303s3.808 26.543 28.28 26.706c24.471.163 24.156-19.403 24.156-19.403Z" fill="#261097"/><path d="M262.137 395.045c12.839-1.622 21.932-13.345 20.31-26.184-1.623-12.839-13.346-21.932-26.185-20.31-12.838 1.623-21.931 13.346-20.309 26.185 1.622 12.838 13.345 21.931 26.184 20.309ZM382.299 276.058c1.796-16.723-10.305-31.736-27.028-33.531-16.723-1.796-31.736 10.305-33.531 27.028-1.796 16.723 10.305 31.735 27.028 33.531 16.723 1.796 31.735-10.305 33.531-27.028ZM417.324 415.747a23.425 23.425 0 0 1-11.637 23.29 23.433 23.433 0 0 1-34.211-26.536 23.431 23.431 0 0 1 45.848 3.246Z" fill="#97FCF6" stroke="#261097" stroke-linejoin="round"/><path d="M395.801 432.319a13.891 13.891 0 0 1-13.81-6.9 13.89 13.89 0 0 1 1.09-15.4 13.895 13.895 0 0 1 24.762 6.774 13.892 13.892 0 0 1-12.042 15.526Zm-2.985-23.619a9.917 9.917 0 0 0-8.161 12.972 9.906 9.906 0 0 0 8.704 6.751 9.912 9.912 0 0 0 10.535-11.131 9.948 9.948 0 0 0-11.059-8.443l-.019-.149ZM260.979 385.577a13.886 13.886 0 0 1-13.838-6.879 13.897 13.897 0 0 1 15.743-20.296 13.892 13.892 0 0 1-1.905 27.175Zm-2.984-23.619a9.955 9.955 0 0 0-8.381 7.224 9.952 9.952 0 1 0 8.381-7.224Z" fill="#FFE166"/></svg>