<svg width="510" height="840" fill="none" xmlns="http://www.w3.org/2000/svg"><path d="M400.1 241.769s-12.138.265-14.044 2.641c-1.905 2.377 1.198 12.522 4.606 13.219 3.408.697 12.178-2.357 13.455-6.55 1.276-4.194-.138-34.265-.138-34.265l21.674 11.009 2.151 24.552s-12.364-.079-14.643 4.439c-2.278 4.518-1.964 12.639 6.05 13.523 8.014.884 14.171-7.532 14.8-11.461.628-3.928-2.848-41.846-2.848-41.846l-31.701-14.004.638 38.743Z" fill="#FA634B"/><path d="M63.913 346.945s-13.003-.442-17.678 8.495c-4.674 8.937 4.91 16.312 12.227 15.124 7.316-1.189 13.17-8.633 13.837-11.54.668-2.907-11.647-40.991-11.647-40.991s6.875 1.561 10.115.402c3.241-1.159 7.278-2.514 10.027-1.404 2.75 1.11 4.263 5.391 5.588 3.368 1.326-2.023-3.142-8.838-8.514-10.802-5.372-1.964-21.743-7.081-25.534-8.328-3.79-1.248-4.694-.639-4.41 1.237.285 1.876 15.989 44.439 15.989 44.439Z" fill="#87BCC8"/><path d="M297.463 541.301a137.49 137.49 0 0 0-6.874-.236c-26.221-.235-115.57 7.336-118.909 7.042a7.117 7.117 0 0 1-.982-.177c-1.169 3.103-3.202 9.104-2.564 11.628.57 2.288 1.228 1.542 2.151.815a4.851 4.851 0 0 0 0 .638c.373 2.593 3.172 5.333 7.857 8.112a7.443 7.443 0 0 1-3.29 4.773s84.458 20.623 117.308 25.779c5.136-18.983 5.411-48.71 5.303-58.374Z" fill="#2E2E47"/><path d="M165.052 608.082c2.445-8.839 9.742-34.275 9.742-34.275s4.173-2.465 3.221-7.031c-.953-4.567-4.154-6.963-6.089-7.189-1.935-.226-3.005 3.378-3.869-.118-.639-2.524 1.394-8.524 2.563-11.628-3.467-.815-8.917-3.928-14.083-2.474-5.716 1.6-21.34 56.557-14.122 69.078 7.218 12.522 20.181 2.475 22.637-6.363Z" fill="#FA634B"/><path d="M151.676 619.955a1.14 1.14 0 0 1-.835-.354c-5.274-5.499-5.058-16.164-2.995-31.593 1.964-14.79 11.922-42.101 12.344-43.211a1.139 1.139 0 0 1 .598-.647 1.14 1.14 0 0 1 .88-.035 1.152 1.152 0 0 1 .683 1.478c-.098.275-10.282 28.214-12.217 42.759-1.964 14.338-2.239 24.876 2.376 29.698a1.146 1.146 0 0 1 0 1.63 1.103 1.103 0 0 1-.834.275Z" fill="#fff"/><path d="M363.665 400.561s-47.453-13.258-67.389 15.458c-19.936 28.715 22.332 128.228 22.332 128.228a117.424 117.424 0 0 0-21.144-2.946c.069 9.713-.167 39.44-5.362 58.374 38.301 5.981 72.28 8.063 78.349 2.397 30.307-28.362-6.786-201.511-6.786-201.511ZM432.872 24.997c-16.695-2.072-64.876 75.168-78.723 90.154-2.602 2.829-7.631 6.57-14.063 10.803 3.516 10.027 8.033 19.19 21.33 36.209 7.857-5.637 17.619-11.991 22.068-15.959 25.789-23.019 66.093-119.135 49.388-121.207ZM441.769 6.77s9.271-5.126 10.862-2.946c1.591 2.18-2.593 3.526-2.593 3.526s1.964.697 2.328 1.709c.363 1.011-2.465 2.307-2.465 2.307a1.213 1.213 0 0 1 .958.758 1.208 1.208 0 0 1-.192 1.207c-.865 1.532-13.121 5.49-14.83 5.381-1.708-.108.688-8.288 5.932-11.942Z" fill="#FFD3B5"/><path d="M416.403 40.121s12.551-26.467 15.124-29.275C434.1 8.037 443.94-1.921 445.904.328c1.964 2.249-8.514 13.002-8.671 15.713-.158 2.71.903 5.52 3.928 5.421 3.025-.098 6.482-4.184 9.497-3.172 3.014 1.011 2.465 3.624-.462 4.812-2.927 1.188-7.994 6.246-10.93 13.042-2.937 6.796-6.639 8.839-11.353 12.826-4.714 3.987-12.384-6.875-11.51-8.849Z" fill="#FFD3B5"/><path d="M219.203 91.15a23.75 23.75 0 0 0-18.807 0c-9.889 4.41-17.559 17.206-16.99 27.144.57 9.939.432 39.892-8.377 49.408-8.809 9.516-52.265 10.94-66.466 31.102-14.2 20.162-3.693 56.106 1.424 58.924 5.116 2.819 8.092-3.692 8.092-3.692s-4.125 42.042 25.141 57.235c29.266 15.192 90.351.285 112.133-27.832 21.782-28.117 24.778-121.777 17.108-150.807-7.67-29.03-39.205-57.814-53.258-41.482Z" fill="#2E2E47"/><path d="M340.086 125.944c-27.734 18.208-81.728 45.254-81.728 45.254s-3.339 13.425 21.959 27.38c19.573 10.803 62.853-12.246 89.604-31.426-5.696-23.305-22.43-36.68-29.835-41.208Z" fill="#EAE6E4"/><path d="M264.928 263.896a11.265 11.265 0 0 0-.982-1.081c-11.078-12.315-41.551 8.623-62.646 9.88-21.095 1.257-23.57-20.623-27.233-34.814-3.663-14.191-11.696-1.847-20.319-7.788-8.623-5.942 7.699-24.552 6.776-30.071-.923-5.519-13.238-.619-17.854-5.097-3.093-2.995 6.482-12.865 13.17-19.082-16.42 4.646-38.075 9.821-47.326 22.961-14.2 20.172-3.693 56.106 1.424 58.924 5.116 2.819 8.092-3.692 8.092-3.692s-4.125 42.042 25.141 57.235c29.266 15.192 90.351.285 112.133-27.832 3.781-4.802 6.914-11.539 9.624-19.543Z" fill="#EDACCA"/><path d="M341.077 316.456c-4.409-14.643-8.239-26.074-11.195-33.302-26.938-65.936-38.91-111.553-76.327-112.319 0 0-41.168.727-45.656 41.885-2.946 27.262 7.179 80.766 12.207 128.366 20.221.766 77.191.374 120.971-24.63Z" fill="#EAE6E4"/><path d="M228.562 150.928s3.693 14.211 2.701 21.125c-.874 6.098-1.1 11.274 2.357 12.187 3.456.913 13.15 3.85 17.608.089 4.459-3.762-.245-4.98-3.29-17-.835-3.3-2.121-13.081-4.91-15.232s-14.515-7.287-14.466-1.169Z" fill="#FFD3B5"/><path d="M243.922 165.296c1.384.226 2.602.383 3.673.501-.609-3.005-1.464-7.857-2.819-11.058l-13.238 2.838a19.829 19.829 0 0 0 12.384 7.719Z" fill="#2E2E47"/><path d="M248.665 101.53s4.635 12.079 8.033 18.767c2.102 4.155 6.011 5.294 9.301 11.383 3.289 6.088 6.452 16.184-4.047 23.569-14.917 10.518-30.837 3.644-37.122-1.777-5.735-4.96-6.756-6.669-6.756-6.669s-1.385 3.791-5.746.383c-4.36-3.407-9.889-9.437-6.246-12.334 3.644-2.897 5.814.334 6.59-.491.776-.825-1.777-7.729-2.809-13.749-1.031-6.02 19.691-30.003 38.802-19.082Z" fill="#FFD3B5"/><path d="M229.574 127.516a.452.452 0 0 1-.383-.197.451.451 0 0 1 .117-.638 32.897 32.897 0 0 1 7.209-3.752.461.461 0 0 1 .569.315.446.446 0 0 1-.304.569 32.843 32.843 0 0 0-6.953 3.624.417.417 0 0 1-.255.079Z" fill="#2E2E47"/><path d="M260.833 135.058s-7.199 5.048-15.605 5.775a16.7 16.7 0 0 0 7.473 1.856c.847.026 1.694-.014 2.534-.118 2.946-.354 5.892-2.946 5.745-5.068a98.112 98.112 0 0 1-.147-2.445Z" fill="#fff"/><mask id="a" style="mask-type:alpha" maskUnits="userSpaceOnUse" x="168" y="541" width="130" height="59"><path d="M297.464 541.301a137.49 137.49 0 0 0-6.874-.236c-26.222-.235-115.57 7.336-118.909 7.042a7.09 7.09 0 0 1-.982-.177c-1.169 3.103-3.202 9.104-2.564 11.628.57 2.288 1.228 1.542 2.151.815a4.851 4.851 0 0 0 0 .638c.373 2.593 3.172 5.333 7.857 8.112a7.462 7.462 0 0 1-3.29 4.773s84.458 20.623 117.308 25.779c5.136-18.983 5.411-48.71 5.303-58.374Z" fill="#2E2E47"/></mask><g mask="url(#a)"><path d="M207.428 566.531c-5.244 9.742-1.394 16.901 1.562 20.102 2.956 3.202 7.326 5.176 8.396 5.009a3.669 3.669 0 0 1 2.328.108c.982.344 2.288 1.247 2.465 2.21.177.962.727.451 1.905.078 1.179-.373.599-1.571.089-2.229-.511-.658-2.2-.727-3.006-1.817-.805-1.09-.108-2.661-1.414-4.409-1.306-1.748-6.619-6.983-6.098-11.991.52-5.009 8.416-8.731 8.838-10.725v-.255a2.488 2.488 0 0 0-.628-2.091 2.479 2.479 0 0 0-2.033-.796c-3.477.235-9.566 1.532-12.404 6.806Z" fill="#FFEA8F"/><path d="M221.05 560.618s-.521.236 0 1.179c.52.943.265.982.785.795.521-.186 1.041-.461.757-1.09-.285-.628-.639-1.404-1.542-.884ZM224.094 594.028c.982-.334.727-1.198.324-1.846-.589 0-.599.186-1.257 1.031-.29.339-.62.642-.982.903.265.776.806.285 1.915-.088Z" fill="#2E2E47"/><path d="M255.824 594.166c5.353 9.693 13.455 10.341 17.737 9.594 4.282-.746 8.328-3.348 8.77-4.34a3.59 3.59 0 0 1 1.355-1.896c.795-.609 2.278-1.247 3.182-.874.903.374.775-.363 1.1-1.561.324-1.198-.982-1.346-1.817-1.277-.835.069-1.807 1.454-3.162 1.532-1.356.079-2.289-1.345-4.469-1.198-2.18.147-9.457 1.778-13.386-1.375-3.928-3.152-2.769-11.785-4.232-13.228l-.177-.167a2.482 2.482 0 0 0-3.869.658c-1.67 3.093-3.919 8.897-1.032 14.132Z" fill="#FFEA8F"/><path d="M258.29 579.523s-.088.56.982.678c1.071.118.982.314 1.1-.236.118-.55.167-1.129-.511-1.228-.677-.098-1.571-.255-1.571.786ZM287.968 595.069c.245-.982-.609-1.247-1.385-1.267-.353.472-.157.609.187 1.621.137.413.223.842.255 1.276.727.236.658-.481.943-1.63Z" fill="#2E2E47"/><path d="M180.51 548.598c3.781-10.41 11.687-12.296 16.037-12.227 4.351.069 8.75 1.964 9.33 2.946a3.658 3.658 0 0 0 1.64 1.67c.874.471 2.445.874 3.28.363s.825.236 1.326 1.375c.501 1.139-.776 1.483-1.601 1.542-.825.059-1.964-1.159-3.359-.982-1.394.176-2.052 1.699-4.232 1.885-2.181.187-9.615-.294-13.003 3.437-3.388 3.732-.904 12.09-2.131 13.749l-.147.197a2.508 2.508 0 0 1-1.965.957 2.504 2.504 0 0 1-1.964-.957c-2.131-2.946-5.244-8.338-3.211-13.955Z" fill="#FFEA8F"/><path d="M185.185 562.69s-.177-.54.845-.815c1.021-.275.923-.461 1.119 0 .197.462.344 1.09-.314 1.297-.658.206-1.454.54-1.65-.482ZM212.133 542.715c.402.982-.403 1.336-1.169 1.463-.422-.402-.255-.559-.059-1.62a6.197 6.197 0 0 0 0-1.306c.756-.344.766.383 1.228 1.463Z" fill="#2E2E47"/><path d="M254.941 566.373c5.991-9.3 2.72-16.695 0-20.162-2.72-3.466-6.875-5.745-7.974-5.656a3.678 3.678 0 0 1-2.318-.295c-.913-.413-2.18-1.424-2.278-2.396-.099-.973-.688-.511-1.896-.226-1.208.285-.717 1.512-.265 2.21.452.697 2.141.893 2.858 2.052.717 1.159-.108 2.661 1.06 4.508 1.169 1.846 6.05 7.483 5.137 12.433-.914 4.949-9.055 7.994-9.634 9.958l-.059.245a2.473 2.473 0 0 0 .455 2.132 2.492 2.492 0 0 0 1.961.952c3.535.049 9.702-.727 12.953-5.755Z" fill="#FFEA8F"/><path d="M240.887 571.185s.54-.196.148-1.168c-.393-.973-.197-.982-.727-.865-.531.118-1.071.393-.845 1.041.226.649.501 1.444 1.424.992Z" fill="#2E2E47"/></g><path d="M363.665 400.56c-8.102-33.046-15.988-62.174-22.588-84.104-43.78 25.003-100.75 25.396-120.971 24.63 2.563 24.287 3.791 47.032 1.267 63.962-2.74 18.404 8.436 140.103 8.436 140.103s-9.182 37.583-9.703 49.732c-.737 16.881-1.886 50.969-3.025 86.166a85.623 85.623 0 0 1 25.318 2.338 270.216 270.216 0 0 0 29.953 4.998c14.289-45.931 28.136-94.357 30.847-117.426 3.172-27.085 8.23-105.985 8.23-105.985s73.38 21.802 52.236-64.414Z" fill="#FFD3B5"/><path d="M232.756 141.422c.707 1.552 3.672 1.728 6.628.393 2.957-1.336 4.773-3.683 4.066-5.245-.707-1.561-3.663-1.728-6.619-.392-2.956 1.335-4.802 3.682-4.075 5.244ZM256.325 130.069c.707 1.562 2.947 2.082 4.911 1.169 1.964-.914 3.083-2.946 2.376-4.478-.707-1.533-2.946-2.082-4.91-1.169-1.964.913-3.054 2.926-2.377 4.478Z" fill="#FFA982"/><path d="M251.414 136.433a.461.461 0 0 1-.428-.618.448.448 0 0 1 .242-.256c2.18-.982 3.368-2.2 3.339-3.32 0-.913-.894-1.807-2.338-2.396a10.8 10.8 0 0 1-6.54-10.92c.756-3.163 6.874-3.222 7.1-3.222a.461.461 0 0 1 .326.129.456.456 0 0 1 .136.323.474.474 0 0 1-.462.472c-1.561 0-5.706.471-6.197 2.514a9.947 9.947 0 0 0 5.981 9.82c1.817.737 2.888 1.964 2.946 3.222 0 1.07-.618 2.661-3.928 4.183a.432.432 0 0 1-.177.069ZM232.932 133.634a.549.549 0 0 1-.206 0 .473.473 0 0 1-.23-.273.463.463 0 0 1 .034-.356c1.414-2.759 3.162-3.751 4.37-4.105a4.671 4.671 0 0 1 2.416-.088.452.452 0 0 1 .304.57.459.459 0 0 1-.569.314c-.148 0-3.33-.884-5.706 3.732a.448.448 0 0 1-.413.206Z" fill="#2E2E47"/><path d="M250.904 125.208h-.137a.457.457 0 0 1-.324-.4.456.456 0 0 1 .019-.18 5.373 5.373 0 0 1 5.893-3.417.464.464 0 0 1 .396.33c.018.058.023.12.016.18a.45.45 0 0 1-.322.397.452.452 0 0 1-.179.016 4.41 4.41 0 0 0-4.91 2.769.45.45 0 0 1-.452.305ZM241.358 119.826c6.875-3.486 12.905-12.03 12.905-12.03s-6.541-21.144-25.092-15.713c-18.552 5.43-24.199 20.014-23.324 27.989.874 7.974 6.354 19.916 7.051 18.944.216-.236 24.964-17.403 28.46-19.19ZM217.729 186.833s17.972 102.764-3.633 113.301c0 0 2.131 119.204.265 141.546-1.866 22.342-12.767 93.846-6.874 95.86 5.892 2.013 73.655-2.259 100.76-4.773 27.105-2.514 93.051-25.092 97.843-29.354 4.793-4.262-10.802-49.025-16.439-63.334-5.637-14.309-36.475-111.828-42.053-122.876-5.578-11.049-32.82-89.369-54.122-113.921-19.238-22.175-35.109-32.084-35.109-32.084a13.882 13.882 0 0 0-7.453-.157s15.585 15.428 27.223 30.209c8.023 10.184 13.159 21.134 14.092 22.165l-51.411 17.54-16.214-60.339s-4.802 1.955-6.875 6.217Z" fill="#2E2E47"/><path d="M214.626 131.139a7.863 7.863 0 0 0-9.546-.628c-5.45 3.29-6.746 9.231-1.296 18.394a10.566 10.566 0 0 0 16.695 2.082c3.879-4.125-2.033-16.695-5.853-19.848Z" fill="#fff"/><path d="M236.055 99.37c-6.648-4.263-15.713-1.866-15.713-1.866a30.024 30.024 0 0 1 11.166 5.715c4.39 3.624 8.318 13.406 9.566 16.695l.255-.137a31.413 31.413 0 0 0 7.473-5.726c-1.816-2.897-7.316-11.175-12.747-14.681Z" fill="#EDACCA"/><path d="M252.092 107.275a44.768 44.768 0 0 0-3.083-4.105 32.035 32.035 0 0 0-7.68-6.815c-.363-.226-.746-.433-1.12-.639a11.705 11.705 0 0 0-1.168-.57 13.751 13.751 0 0 0-2.446-.883 18.011 18.011 0 0 0-5.097-.56c-1.684.05-3.358.271-4.998.658a28.5 28.5 0 0 0-4.744 1.532 27.3 27.3 0 0 1 4.832-1.09 24.029 24.029 0 0 1 4.91-.197 16.55 16.55 0 0 1 4.714.983 13.65 13.65 0 0 1 2.141.982c.354.176.678.412.982.618.305.207.658.442.982.678a30.047 30.047 0 0 1 6.551 6.963 43.987 43.987 0 0 1 2.534 4.105 42.862 42.862 0 0 1 1.502 2.995 59.242 59.242 0 0 0 2.357-2.799 34.744 34.744 0 0 0-1.169-1.856Z" fill="#EDACCA"/><path d="M225.793 250.019a1.742 1.742 0 0 1-1.09-.245 3.342 3.342 0 0 1-1.189-3.723.941.941 0 0 1 .426-.589.938.938 0 0 1 .721-.098.916.916 0 0 1 .568.454.924.924 0 0 1 .063.725s-.275 1.178.324 1.62c1.679.304 13.091-2.946 14.584-3.771a8.156 8.156 0 0 0-.285-3.251.917.917 0 0 1 .316-1.02.916.916 0 0 1 1.067-.039.927.927 0 0 1 .404.617c.383 1.513.845 4.194-.314 5.127-.786.628-6.03 2.141-7.984 2.671-4.469 1.208-6.541 1.522-7.611 1.522ZM295.274 226.587h-.079c-1.453-.118-3.182-2.023-3.673-2.602a.928.928 0 0 1-.222-.669.913.913 0 0 1 .32-.628.984.984 0 0 1 1.307.098 6.581 6.581 0 0 0 2.425 1.965c.727 0 4.999-1.817 9.006-3.644l-.982-1.679a.924.924 0 0 1 1.601-.914l1.463 2.554a.927.927 0 0 1 .07.74.94.94 0 0 1-.492.556c-3.418 1.581-9.34 4.223-10.744 4.223Z" fill="#EAE6E4"/><path d="M244.619 330.706a3.576 3.576 0 1 0-.001-7.151 3.576 3.576 0 0 0 .001 7.151ZM274.228 285.639a3.576 3.576 0 1 0-.001-7.151 3.576 3.576 0 0 0 .001 7.151ZM297.051 245.01a3.586 3.586 0 0 1-4.284 3.516 3.584 3.584 0 1 1 4.284-3.516ZM304.201 254.782a3.572 3.572 0 0 1-2.214 3.296 3.576 3.576 0 0 1-3.346-6.279 3.574 3.574 0 0 1 5.56 2.983ZM324.147 352.881a3.586 3.586 0 1 1-2.213-3.305 3.583 3.583 0 0 1 1.94 1.935c.18.434.273.9.273 1.37ZM325.944 303.031a3.586 3.586 0 0 1-6.116 2.548 3.577 3.577 0 0 1-.782-3.907 3.592 3.592 0 0 1 1.32-1.611 3.59 3.59 0 0 1 4.524.442 3.586 3.586 0 0 1 1.054 2.528ZM275.092 395.159a3.583 3.583 0 0 1-4.287 3.515 3.587 3.587 0 0 1-2.814-2.822 3.585 3.585 0 0 1 4.897-4.004 3.572 3.572 0 0 1 2.204 3.311ZM284.962 322.299a3.587 3.587 0 0 1-7.101.7 3.589 3.589 0 0 1 1.525-3.68 3.58 3.58 0 0 1 1.991-.604 3.571 3.571 0 0 1 3.314 2.211c.18.436.272.902.271 1.373ZM235.907 357.9a3.58 3.58 0 0 1-2.212 3.311 3.573 3.573 0 0 1-2.071.204 3.584 3.584 0 0 1 .699-7.1 3.574 3.574 0 0 1 3.584 3.585ZM294.733 436.465a3.58 3.58 0 0 1-2.212 3.311 3.584 3.584 0 1 1-1.372-6.896 3.574 3.574 0 0 1 3.584 3.585ZM294.733 415.527a3.586 3.586 0 0 1-4.284 3.516 3.584 3.584 0 0 1 .7-7.1 3.574 3.574 0 0 1 3.584 3.584ZM350.574 410.528a3.574 3.574 0 1 0 .002-7.148 3.574 3.574 0 0 0-.002 7.148ZM341.078 448.23a3.578 3.578 0 0 1-4.279 3.495 3.577 3.577 0 0 1-2.598-4.875 3.577 3.577 0 0 1 6.877 1.38ZM245.974 478.93a3.576 3.576 0 1 0-.001-7.151 3.576 3.576 0 0 0 .001 7.151ZM303.199 509.875a3.58 3.58 0 0 1-2.212 3.312 3.59 3.59 0 0 1-3.907-.777 3.587 3.587 0 0 1 2.535-6.12 3.585 3.585 0 0 1 3.584 3.585ZM351.458 486.079a3.575 3.575 0 1 0 0-7.15 3.575 3.575 0 0 0 0 7.15ZM239.483 422.687a3.585 3.585 0 1 1-2.205-3.312 3.591 3.591 0 0 1 1.935 1.941c.179.435.271.901.27 1.371ZM379.27 432.881a3.583 3.583 0 0 1-4.278 3.526 3.588 3.588 0 0 1-2.822-2.814 3.585 3.585 0 0 1 4.886-4.018 3.572 3.572 0 0 1 2.214 3.306Z" fill="#fff"/><path d="M272.353 688.386a270.413 270.413 0 0 1-29.953-4.999 85.686 85.686 0 0 0-25.357-2.338 64538.1 64538.1 0 0 0-3.202 103.049c-.982 5.529-2.494 13.641-2.838 15.772a7.345 7.345 0 0 1-.246.982c3.005 1.385 8.839 3.85 11.412 3.408 3.535-.619 0-1.964.393-3.86.393-1.895 2.946-4.91 7.611-5.548 4.665-.639 6.776 3.722 6.776 3.722l.501-3.781s17.785-51.402 34.903-106.407Z" fill="#2E2E47"/><path d="M270.467 810.791c-8.622-3.084-33.479-12.198-33.479-12.198s-2.16-4.34-6.776-3.722c-4.616.619-7.248 3.634-7.611 5.549-.363 1.915 3.143 3.241-.393 3.86-2.573.442-8.406-2.023-11.411-3.408-1.071 3.398-4.577 8.603-3.497 13.867 1.189 5.823 54.869 25.376 67.881 19.081 13.012-6.295 3.919-19.946-4.714-23.029Z" fill="#FA634B"/><path d="M268.817 829.155c-5.352 0-11.903-1.051-19.642-2.661-14.603-3.035-41.119-14.938-42.229-15.438a1.156 1.156 0 0 1 .096-2.141c.289-.105.608-.091.886.039.266.118 27.4 12.295 41.758 15.281 14.162 2.946 24.65 4.036 29.796-.226a1.16 1.16 0 0 1 1.473 1.778c-2.946 2.396-6.953 3.368-12.138 3.368Z" fill="#fff"/><path d="M130.237 437.712s-4.91 9.821-7.159 11.854c-2.249 2.033-16.067 12.58-18.66 17.52-2.592 4.94-6.069 24.876-5.047 24.552 1.021-.325 1.826-2.132 1.826-2.132s-1.895 7.494-.815 8.839l1.905.314s.452 2.19 2.347 2.505c1.896.314 8.044-15.114 8.515-15.036.471.079-5.765 13.209-3.153 14.132 2.613.923 12.6-24.935 14.604-23.304 2.003 1.63-1.729 14.367 2.318 17.48 4.046 3.114 3.24-4.831 3.771-8.003.53-3.173 6.472-20.418 7.179-25.672.707-5.254 8.838-15.762 6.088-19.474-2.749-3.712-12.423-6.501-13.719-3.575Z" fill="#FFD3B5"/><path d="M161.85 313.716c-23.109 67.979-51.225 158.388-35.355 155.01 18.797-4.017 64.581-92.747 75.079-127.532 1.503-4.91 3.113-10.586 4.753-16.695-22.784 2.465-37.75-5.804-44.477-10.783Z" fill="#FFD3B5"/><path d="M215.54 190.702s-12.856 8.632-28.539 46.157c-3.87 9.242-16.803 47.061-30.042 76.857 6.727 4.979 26.32 21.252 52.109 16.99 9.86-37.113 17.638-99.494 6.472-140.004Z" fill="#EAE6E4"/><path d="M297.415 600.903h-.098a.469.469 0 0 1-.295-.2.447.447 0 0 1-.059-.35c0-.108 2.583-11.235 5.785-23.148 3.201-11.912 2.681-34.922 2.681-35.197a.48.48 0 0 1 .452-.481.473.473 0 0 1 .471.451c0 .236.501 23.482-2.72 35.453-3.221 11.972-5.745 23-5.775 23.108a.462.462 0 0 1-.442.364ZM341.077 573.916a.466.466 0 0 1-.432-.315c-6.639-20.329-22.106-28.902-22.263-28.99a.46.46 0 0 1-.218-.273.44.44 0 0 1 .041-.346.45.45 0 0 1 .448-.244c.06.007.118.027.171.057.157.079 15.948 8.839 22.695 29.462a.464.464 0 0 1-.294.59l-.148.059Z" fill="#2E2E47"/><mask id="b" style="mask-type:alpha" maskUnits="userSpaceOnUse" x="210" y="680" width="63" height="125"><path d="M272.353 688.386a270.413 270.413 0 0 1-29.953-4.999 85.686 85.686 0 0 0-25.357-2.338 64538.1 64538.1 0 0 0-3.202 103.049c-.982 5.529-2.494 13.641-2.838 15.772a7.345 7.345 0 0 1-.246.982c3.005 1.385 8.839 3.85 11.412 3.408 3.535-.619 0-1.964.393-3.86.393-1.895 2.946-4.91 7.611-5.548 4.665-.639 6.776 3.722 6.776 3.722l.501-3.781s17.785-51.402 34.903-106.407Z" fill="#2E2E47"/></mask><g mask="url(#b)"><path d="M236.203 746.799c9.948 4.842 16.941.707 20.024-2.367 3.084-3.074 4.911-7.532 4.665-8.593a3.585 3.585 0 0 1 0-2.337c.295-.982 1.149-2.328 2.102-2.544.952-.216.422-.746 0-1.964s-1.591-.53-2.23 0c-.638.53-.638 2.229-1.698 3.084-1.061.854-2.652.206-4.341 1.591s-6.718 6.874-11.785 6.57c-5.068-.305-9.065-8.053-11.078-8.377h-.245a2.487 2.487 0 0 0-2.063.709 2.5 2.5 0 0 0-.717 2.06c.482 3.506 1.955 9.546 7.366 12.168Z" fill="#FFEA8F"/><path d="M229.75 733.423s.255.511 1.179 0c.923-.51.982-.314.766-.825-.216-.51-.511-.982-1.13-.717-.618.266-1.375.668-.815 1.542ZM263.003 729.033c-.373-.982-1.217-.667-1.856-.235 0 .579.206.579 1.08 1.208.36.264.69.567.983.903.726-.255.216-.776-.207-1.876Z" fill="#2E2E47"/><path d="M261.874 697.322c9.467-5.725 9.82-13.847 8.838-18.099-.982-4.253-3.682-8.191-4.684-8.584a3.617 3.617 0 0 1-1.964-1.286c-.639-.766-1.336-2.229-.982-3.143.353-.913-.393-.766-1.601-1.041-1.208-.275-1.306 1.051-1.208 1.876.098.825 1.522 1.738 1.66 3.094.137 1.355-1.258 2.347-.983 4.517.275 2.17 2.161 9.379-.834 13.425-2.996 4.046-11.687 3.241-13.042 4.763l-.167.187a2.492 2.492 0 0 0 .815 3.84c3.143 1.561 9.035 3.525 14.152.451Z" fill="#FFEA8F"/><path d="M247.133 695.486s.569.059.638-.982c.069-1.041.275-.982-.265-1.09-.54-.108-1.139-.118-1.218.559-.078.678-.186 1.513.845 1.513Z" fill="#2E2E47"/><path d="M219.36 774.415c-10.547-3.359-12.767-11.186-12.855-15.537-.089-4.35 1.659-8.838 2.543-9.437a3.6 3.6 0 0 0 1.601-1.699c.442-.904.776-2.485.236-3.3s.206-.825 1.316-1.385c1.109-.559 1.522.717 1.61 1.542.089.825-1.07 2.053-.893 3.398.176 1.346 1.777 1.964 2.052 4.154.275 2.19.098 9.625 3.928 12.856s12.119.412 13.749 1.581l.197.137a2.504 2.504 0 0 1 1.011 1.938 2.493 2.493 0 0 1-.903 1.991c-2.632 2.239-7.886 5.568-13.592 3.761Z" fill="#FFEA8F"/><path d="M233.256 769.141s-.53.196-.844-.815c-.314-1.012-.501-.904 0-1.12.501-.216 1.07-.383 1.306.256.236.638.55 1.473-.462 1.679ZM212.22 743.057c.924-.432 1.346.354 1.513 1.11-.393.442-.56.275-1.621.128a6.334 6.334 0 0 0-1.306 0c-.383-.688.344-.688 1.414-1.238Z" fill="#2E2E47"/><path d="M234.13 699.335c-9.536-5.627-16.832-2.052-20.152.776-3.319 2.829-5.45 7.12-5.323 8.191a3.636 3.636 0 0 1-.206 2.327c-.373.982-1.326 2.239-2.298 2.377-.972.137-.481.707-.147 1.895.334 1.189 1.542.658 2.219.177.678-.481.806-2.17 1.964-2.946 1.159-.776 2.662 0 4.459-1.247 1.797-1.248 7.238-6.345 12.217-5.628 4.979.717 8.397 8.75 10.38 9.232h.246a2.482 2.482 0 0 0 2.946-2.534c-.128-3.447-1.149-9.595-6.305-12.62Z" fill="#FFEA8F"/><path d="M239.502 713.163s-.216-.53-1.168-.088c-.953.442-.982.226-.835.756.147.53.432 1.061 1.07.796.639-.266 1.424-.541.933-1.464Z" fill="#2E2E47"/></g><path d="M294.959 201.799a.459.459 0 0 1-.461-.441c0-.511-.57-12.512 2.121-18.915a53.494 53.494 0 0 1 5.804-9.634c4.154-5.667 4.91-5.372 5.215-5.264.628.236.343 1.08.235 1.394-.982 3.094-5.597 14.673-7.581 19.642l13.435-14.545a.461.461 0 0 1 .677.629l-15.124 16.361a.455.455 0 0 1-.28.147.466.466 0 0 1-.501-.316.453.453 0 0 1 .015-.312c.069-.177 6.993-17.54 8.436-21.763a57.121 57.121 0 0 0-9.477 14.064c-2.612 6.216-2.062 18.394-2.052 18.512a.482.482 0 0 1-.442.491l-.02-.05ZM215.284 302.412h-.108a.45.45 0 0 1-.351-.378.46.46 0 0 1 .007-.181c7.061-28.48 5.097-62.224 5.078-62.558a.446.446 0 0 1 .255-.448.465.465 0 0 1 .509.074c.092.08.149.193.159.315 0 .334 1.964 34.215-5.107 62.852a.45.45 0 0 1-.442.324ZM207.388 153.069a.924.924 0 0 1-.599-.245.478.478 0 0 1-.135-.13.453.453 0 0 1 .008-.531.45.45 0 0 1 .315-.187.45.45 0 0 1 .352.101l.098.069h.157a19.345 19.345 0 0 1 2.701-.128 2.554 2.554 0 0 0 2.141-.874c.884-1.09.982-3.309.314-6.413-.668-3.103-2.622-7.414-5.126-8.838a3.143 3.143 0 0 0-2.603-.364c-3.447 1.09-3.221 3.536-3.211 3.555a.472.472 0 0 1-.593.496.47.47 0 0 1-.277-.224.464.464 0 0 1-.053-.173s-.295-3.222 3.859-4.528a4.025 4.025 0 0 1 3.339.432c2.76 1.601 4.783 5.893 5.559 9.468.776 3.574.589 5.892-.491 7.188a3.427 3.427 0 0 1-1.284.95 3.423 3.423 0 0 1-1.574.268h-.118a17.895 17.895 0 0 0-2.416.118l-.363-.01Z" fill="#2E2E47"/><path d="M207.506 131.14s-8.328-32.497 11.697-39.99a14.325 14.325 0 0 0-5.539-1.62c-3.379-.325-10.597 4.605-13.376 16.763-2.779 12.158 1.502 27.223 1.502 27.223l5.716-2.376Z" fill="#fff"/></svg>