<svg width="510" height="840" fill="none" xmlns="http://www.w3.org/2000/svg"><path d="M352.697 555.304s21.226-8.233 36.82 0c15.593 8.234 27.727 22.961 43.336 18.627 15.608-4.333 25.993-25.127 48.087-22.527 22.094 2.6 31.186 12.56 27.719 23.394-3.466 10.834-17.798-3.869-27.719-.434-9.921 3.436-30.761 24.687-50.688 22.527-19.926-2.159-24.871-13.929-44.187-16.901-25.119-3.869-31.62 4.767-31.62 4.767l-1.748-29.453Z" fill="#FBCDF6"/><path d="M383.311 552.991c-4.736-.774-5.201-.14-5.487 6.5-.286 6.64-9.82 18.627-1.447 19.346 8.373.72 6.191-1.872 8.667-8.373 2.476-6.5 5.92-16.173-1.733-17.473ZM397.751 583.318c-4.179-2.476-1.734-2.894.433-7.653 2.167-4.76 1.44-14.704 6.64-10.687 5.2 4.016 5.2 4.643 3.614 9.673-1.587 5.03-2.894 13.287-10.687 8.667ZM416.811 593.131c-5.626-3.034-4.481-1.873-2.747-9.38 1.733-7.506-1.44-12.381 5.053-10.547 6.493 1.834 3.034 4.48 2.894 9.967-.139 5.487 3.893 14.874-5.2 9.96ZM434.284 573.784c-4.496 2.035-3.467 3.614-1.88 9.967 1.586 6.354-.867 14.58 6.964 12.382 7.832-2.198 7.36-3.869 3.87-10.834-3.491-6.965-2.895-14.254-8.954-11.515ZM448.291 564.691c-6.802 5.239-3.869 3.173.434 9.96 4.302 6.786 3.459 17.326 10.539 12.854 7.081-4.473 3.46-4.187-1.447-11.268-4.906-7.081-4.473-15.446-9.526-11.546ZM463.451 554.577c-4.751 3.242-6.191.294-1.594 8.954 4.597 8.659 5.928 18.054 12.567 14.153 6.64-3.9 1.153-4.914-1.547-11.84-2.701-6.926-3.49-15.307-9.426-11.267ZM484.384 551.985c-6.965-.457-4.326-1.448-4.04 5.486.287 6.934-1.447 15.16 3.754 15.88 5.2.719 5.2-2.02 5.486-9.387.287-7.367 1.471-11.546-5.2-11.979ZM497.957 555.738c-2.004-1.006-1.3 1.153-2.453 5.92-1.153 4.767-4.333 12.559-2.321 13.86 2.012 1.3 13.155 8.512 15.732 1.586s1.176-15.307-10.958-21.366Z" fill="#C4A8FF"/><path d="M352.697 555.304s21.226-8.233 36.82 0c15.593 8.234 27.727 22.961 43.336 18.627 15.608-4.333 25.993-25.127 48.087-22.527 22.094 2.6 31.186 12.56 27.719 23.394-3.466 10.834-17.798-3.869-27.719-.434-9.921 3.436-30.761 24.687-50.688 22.527-19.926-2.159-24.871-13.929-44.187-16.901-25.119-3.869-31.62 4.767-31.62 4.767l-1.748-29.453Z" stroke="#261097" stroke-linejoin="round"/><path d="M420.432 259.955c-4.163-5.061-7.785 3.528-7.785 3.528s1.254-6.5-5.417-8.597c-6.314-1.981-7.986 5.007-7.986 5.007s1.548-6.462-3.815-7.739c-7.622-1.78-7.297 26.69-14.409 41.015-6.354 12.784-29.206 26.705-57.505 28.284-.387 0-.728.077-1.107.108-13.047-29.646-25.808-48.11-35.412-65.259-7.444-13.303-15.299-23.99-23.672-32.254-8.211-12.637-26.311-40.078-29.461-40.519-2.925-.418-4.945 12.761-5.835 20.081-20.391-4.875-43.684-.634-70.985 11.105-21.746 9.348-37.099 19.579-46.432 34.437-7.452-4.404-20.074-10.417-23.912-7.437-5.192 4.047 13.156 54.441 13.156 56.174l.302-.983c1.447 15.323 8.04 36.867 16.026 61.034-12.9 4.388-26.891 11.09-39.8 18.82-30.303 18.163-44.682 68.494-42.716 73.517 2.383 6.105 8.512-.929 8.512-.929s-3.219 5.789 2.477 9.851c5.417 3.87 9.139-2.275 9.139-2.275s-3.506 5.657 1.222 8.513c6.702 4.07 15.245-23.092 26.45-34.468 8.962-9.108 30.777-14.928 54.891-10.834 8.411 28.439 14.765 56.492 14.053 79.297a453.206 453.206 0 0 1-7.352 64.64c-12.142.774-29.902 5.967-48.528 23.293-13.969 12.993-25.723 55.362-26.86 66.552-1.154 11.407-.14 14.579 3.752 15.593 3.46.898 6.787-6.067 6.787-6.067s-3.32 7.801 4.643 10.107c5.58 1.625 8.66-8.66 8.66-8.66s-2.368 8.079 4.186 8.807c3.87.433 7.94-9.674 7.94-9.674s5.2-17.76 15.601-26.86c38.43-33.624 102.211-15.477 111.76-13.86 47.646 8.234 57.265 21.668 67.751 42.005 10.788 20.894 8.66 39.026 8.66 39.026s-2.152 8.76 3.869 10.06c6.02 1.3 6.191-7.785 6.191-7.785s.247 9.89 5.239 10.547c5.873.774 7.8-5.479 8.427-8.961-.17 2.716.232 7.027 4.318 7.739 5.951 1.06 7.46-9.287 14.905-42.562 7.444-33.276 21.226-141.616 12.962-196.56-5.363-35.659-11.554-65.004-18.139-89.589 16.877-4.558 39.52-23.363 57.605-44.21 23.069-26.567 21.08-78.911 17.644-83.058Z" fill="#FBCDF6"/><path d="M138.037 224.396c7.932 8.923 12.567 33.469 19.47 28.927 5.595-3.931-7.739-22.775-8.188-34.824-.456-.178-11.282 5.897-11.282 5.897ZM173.967 208.106c-3.328 1.061-16.119 6.423-16.119 6.423 3.869 10.099 4.364 15.431 8.822 25.336 2.228 4.953 9.472 25.151 16.699 15.33 4.644-6.299-4.031-19.222-5.904-25.753-2.105-7.337-2.538-17.822-3.498-21.336ZM196.037 202.976l-11.43 1.841c2.043 8.35 14.704 40.055 20.624 33.493 4.774-5.363-9.975-24.253-9.194-35.334Z" fill="#C4A8FF"/><path d="M420.432 259.955c-4.163-5.061-7.785 3.528-7.785 3.528s1.254-6.5-5.417-8.597c-6.314-1.981-7.986 5.007-7.986 5.007s1.548-6.462-3.815-7.739c-7.622-1.78-7.297 26.69-14.409 41.015-6.354 12.784-29.206 26.705-57.505 28.284-.387 0-.728.077-1.107.108-13.047-29.646-25.808-48.11-35.412-65.259-7.444-13.303-15.299-23.99-23.672-32.254-8.211-12.637-26.311-40.078-29.461-40.519-2.925-.418-4.945 12.761-5.835 20.081-20.391-4.875-43.684-.634-70.985 11.105-21.746 9.348-37.099 19.579-46.432 34.437-7.452-4.404-20.074-10.417-23.912-7.437-5.192 4.047 13.156 54.441 13.156 56.174l.302-.983c1.447 15.323 8.04 36.867 16.026 61.034-12.9 4.388-26.891 11.09-39.8 18.82-30.303 18.163-44.682 68.494-42.716 73.517 2.383 6.105 8.512-.929 8.512-.929s-3.219 5.789 2.477 9.851c5.417 3.87 9.139-2.275 9.139-2.275s-3.506 5.657 1.222 8.513c6.702 4.07 15.245-23.092 26.45-34.468 8.962-9.108 30.777-14.928 54.891-10.834 8.411 28.439 14.765 56.492 14.053 79.297a453.206 453.206 0 0 1-7.352 64.64c-12.142.774-29.902 5.967-48.528 23.293-13.969 12.993-25.723 55.362-26.86 66.552-1.154 11.407-.14 14.579 3.752 15.593 3.46.898 6.787-6.067 6.787-6.067s-3.32 7.801 4.643 10.107c5.58 1.625 8.66-8.66 8.66-8.66s-2.368 8.079 4.186 8.807c3.87.433 7.94-9.674 7.94-9.674s5.2-17.76 15.601-26.86c38.43-33.624 102.211-15.477 111.76-13.86 47.646 8.234 57.265 21.668 67.751 42.005 10.788 20.894 8.66 39.026 8.66 39.026s-2.152 8.76 3.869 10.06c6.02 1.3 6.191-7.785 6.191-7.785s.247 9.89 5.239 10.547c5.873.774 7.8-5.479 8.427-8.961-.17 2.716.232 7.027 4.318 7.739 5.951 1.06 7.46-9.287 14.905-42.562 7.444-33.276 21.226-141.616 12.962-196.56-5.363-35.659-11.554-65.004-18.139-89.589 16.877-4.558 39.52-23.363 57.605-44.21 23.069-26.567 21.08-78.911 17.644-83.058Z" stroke="#261097" stroke-linejoin="round"/><path d="M149.784 288.758a2.249 2.249 0 0 0-1.602 2.321c0 .286 0 3.258-5.069 4.736-4.581 1.347-6.802-1.277-7.042-1.548a2.263 2.263 0 0 0-1.464-.826 2.263 2.263 0 0 0-1.631.409 2.232 2.232 0 0 0-.449 3.095c.163.224 4.148 5.463 11.879 3.196 8.822-2.585 8.303-9.178 8.28-9.457a2.24 2.24 0 0 0-1.569-1.93 2.222 2.222 0 0 0-.869-.089 1.838 1.838 0 0 0-.464.093Z" fill="#261097"/><path d="M135.467 296.086a1.344 1.344 0 0 0-.712.511l-3.869 5.479a1.351 1.351 0 0 0-.214.473 1.323 1.323 0 0 0 .524 1.384 1.333 1.333 0 0 0 1.478.046c.149-.092.277-.213.379-.356l3.869-5.479a1.318 1.318 0 0 0-.325-1.841 1.298 1.298 0 0 0-1.13-.217ZM139.461 296.976a1.313 1.313 0 0 0-.944 1.137l-.712 6.663a1.327 1.327 0 0 0 2.639.271l.704-6.663a1.321 1.321 0 0 0-1.687-1.408ZM227.316 259.73a2.24 2.24 0 0 1 2.74.774c.178.224 2.097 2.492 6.964.372 4.373-1.92 4.396-5.356 4.381-5.743a2.243 2.243 0 0 1 2.135-2.321 2.212 2.212 0 0 1 2.322 2.082c0 .278.325 6.848-7.05 10.06-8.419 3.691-12.265-1.703-12.382-1.927a2.241 2.241 0 0 1 .573-3.096c.099-.077.205-.144.317-.201Z" fill="#261097"/><path d="M242.979 256.17c.272-.124.579-.148.867-.069l6.477 1.718c.168.044.326.122.464.228a1.322 1.322 0 0 1 .249 1.857 1.337 1.337 0 0 1-.878.509 1.321 1.321 0 0 1-.516-.033l-6.477-1.718a1.32 1.32 0 0 1-.978-1.18 1.325 1.325 0 0 1 .792-1.312ZM240.488 259.413a1.327 1.327 0 0 1 1.455.263l4.821 4.643a1.332 1.332 0 0 1 .402.933 1.325 1.325 0 0 1-.802 1.238 1.335 1.335 0 0 1-1.015.014 1.328 1.328 0 0 1-.435-.281l-4.821-4.643a1.332 1.332 0 0 1 0-1.873c.114-.12.247-.219.395-.294ZM195.171 319.789c-.828.302-1.386.457-1.478.488a1.492 1.492 0 0 1-.774-2.879c.093 0 9.603-2.771 11.313-8.69.952-3.297-1.029-8.234-1.052-8.281a1.505 1.505 0 0 1 .82-1.95 1.46 1.46 0 0 1 1.635.325c.138.142.245.311.315.495.093.24 2.392 5.944 1.146 10.239-1.749 5.935-8.807 9.108-11.925 10.253Z" fill="#261097"/><path d="M225.227 307.678c.774-.356 1.315-.627 1.408-.673a1.493 1.493 0 1 0-1.416-2.631c-.077.039-8.837 4.643-14.177 1.548-2.964-1.711-4.968-6.648-4.984-6.694a1.497 1.497 0 0 0-1.942-.836 1.456 1.456 0 0 0-.836 1.942c.101.24 2.399 5.936 6.276 8.172 5.348 3.119 12.63.519 15.671-.828Z" fill="#261097"/><path d="M208.256 287.481c-2.917-1.509-6.817 2.994-7.011 3.227-.278-.062-6.136-1.27-7.537 1.717-3.413 7.275 10.06 8.776 11.089 8.877v.046l.047-.039h.046v-.038c.759-.72 10.509-10.107 3.366-13.79ZM70.41 253.949c11.074-6.036 22.527-1.733 29.453 19.641 6.926 21.374 19.64 56.6 4.643 61.8-14.998 5.2-22.52-.58-31.767-27.147-9.248-26.566-15.044-47.36-2.33-54.294Z" fill="#261097"/><path d="M65.867 271.431c7.53-4.063 15.276-1.099 19.911 13.411 4.635 14.51 13.156 38.445 2.925 41.92-10.23 3.474-15.268-.465-21.451-18.511s-10.021-32.162-1.385-36.82Z" fill="#638EF6" stroke="#261097" stroke-linejoin="round"/><path d="M253.481 172.137c-12.057 3.723-16.963 14.928-6.493 34.824 10.47 19.896 26.83 53.566 41.015 46.431 14.184-7.135 15.306-16.537 2.731-41.695s-23.424-43.831-37.253-39.56Z" fill="#261097"/><path d="M269.275 177.191c-6.191 2.577-7.979 10.114-.96 23.347s18.17 35.667 25.236 30.792c7.065-4.876 6.964-11.183-1.548-27.937-8.513-16.754-15.655-29.158-22.728-26.202Z" fill="#638EF6" stroke="#261097" stroke-linejoin="round"/><path d="M70.41 259.73s-23.68-80.256 65.266-110.901c88.947-30.645 120.126 28.323 120.126 28.323l-5.773 6.353s-39.281-61.227-118.4-25.413c-69.987 31.674-51.4 100.493-51.4 100.493l-9.82 1.145Z" fill="#261097"/><path d="M221.157 370.616c-23.123 12.018-38.12 43.893-36.967 84.35 1.153 40.457.41 99.828 48.52 106.274 69.307 9.24 94.72-35.814 77.386-106.274-5.734-23.301-11.933-45.116-21.196-61.189-12.041-20.932-38.863-38.174-67.743-23.161Z" fill="#C4A8FF"/></svg>